<svg xmlns="http://www.w3.org/2000/svg" width="960" height="560" viewBox="0 0 960 560">
<rect width="100%" height="100%" fill="white"/>
<text x="80" y="35" font-family="sans-serif" font-size="24">Eta vs delay for cyclic queue backpressure</text>
<line x1="80" y1="480" x2="920" y2="480" stroke="black"/>
<line x1="80" y1="70" x2="80" y2="480" stroke="black"/>
<text x="460.0" y="535" font-family="sans-serif" font-size="14">eta</text>
<text x="15" y="275.0" font-family="sans-serif" font-size="14" transform="rotate(-90 15,275.0)">mean_delay_seconds</text>
<polyline points="80.00,480.00 156.36,469.16 232.73,448.63 309.09,439.83 385.45,408.66 461.82,394.59 538.18,381.35 614.55,389.04 690.91,389.51 767.27,359.20 843.64,356.12 920.00,377.03" fill="none" stroke="#1f77b4" stroke-width="2"/>
<circle cx="80.00" cy="480.00" r="2.5" fill="#1f77b4"/>
<circle cx="156.36" cy="469.16" r="2.5" fill="#1f77b4"/>
<circle cx="232.73" cy="448.63" r="2.5" fill="#1f77b4"/>
<circle cx="309.09" cy="439.83" r="2.5" fill="#1f77b4"/>
<circle cx="385.45" cy="408.66" r="2.5" fill="#1f77b4"/>
<circle cx="461.82" cy="394.59" r="2.5" fill="#1f77b4"/>
<circle cx="538.18" cy="381.35" r="2.5" fill="#1f77b4"/>
<circle cx="614.55" cy="389.04" r="2.5" fill="#1f77b4"/>
<circle cx="690.91" cy="389.51" r="2.5" fill="#1f77b4"/>
<circle cx="767.27" cy="359.20" r="2.5" fill="#1f77b4"/>
<circle cx="843.64" cy="356.12" r="2.5" fill="#1f77b4"/>
<circle cx="920.00" cy="377.03" r="2.5" fill="#1f77b4"/>
<rect x="690" y="60" width="12" height="12" fill="#1f77b4"/>
<text x="708" y="70" font-family="sans-serif" font-size="12">scenario1_low_demand</text>
<polyline points="80.00,114.46 156.36,87.68 232.73,72.56 309.09,70.00 385.45,70.00 461.82,70.00 538.18,70.00 614.55,70.00 690.91,70.00 767.27,70.00 843.64,70.00 920.00,70.00" fill="none" stroke="#ff7f0e" stroke-width="2"/>
<circle cx="80.00" cy="114.46" r="2.5" fill="#ff7f0e"/>
<circle cx="156.36" cy="87.68" r="2.5" fill="#ff7f0e"/>
<circle cx="232.73" cy="72.56" r="2.5" fill="#ff7f0e"/>
<circle cx="309.09" cy="70.00" r="2.5" fill="#ff7f0e"/>
<circle cx="385.45" cy="70.00" r="2.5" fill="#ff7f0e"/>
<circle cx="461.82" cy="70.00" r="2.5" fill="#ff7f0e"/>
<circle cx="538.18" cy="70.00" r="2.5" fill="#ff7f0e"/>
<circle cx="614.55" cy="70.00" r="2.5" fill="#ff7f0e"/>
<circle cx="690.91" cy="70.00" r="2.5" fill="#ff7f0e"/>
<circle cx="767.27" cy="70.00" r="2.5" fill="#ff7f0e"/>
<circle cx="843.64" cy="70.00" r="2.5" fill="#ff7f0e"/>
<circle cx="920.00" cy="70.00" r="2.5" fill="#ff7f0e"/>
<rect x="690" y="80" width="12" height="12" fill="#ff7f0e"/>
<text x="708" y="90" font-family="sans-serif" font-size="12">scenario2_high_demand</text>
<text x="80" y="500" font-family="sans-serif" font-size="12">x: 0.1 to 1.2; y: 0.409 to 4.158</text>
</svg>
