<svg xmlns="http://www.w3.org/2000/svg" width="960" height="560" viewBox="0 0 960 560">
<rect width="100%" height="100%" fill="white"/>
<text x="80" y="35" font-family="sans-serif" font-size="24">Episode-wise delay for RL algorithms</text>
<line x1="80" y1="480" x2="920" y2="480" stroke="black"/>
<line x1="80" y1="70" x2="80" y2="480" stroke="black"/>
<text x="460.0" y="535" font-family="sans-serif" font-size="14">episode</text>
<text x="15" y="275.0" font-family="sans-serif" font-size="14" transform="rotate(-90 15,275.0)">mean_delay_seconds</text>
<polyline points="80.00,475.44 80.00,347.87 94.24,477.49 94.24,306.23 108.47,479.80 108.47,377.54 122.71,480.00 122.71,391.70 136.95,479.75 136.95,364.90 151.19,479.45 151.19,299.95 165.42,479.44 165.42,371.37 179.66,479.57 179.66,359.31 193.90,479.98 193.90,371.39 208.14,479.10 208.14,322.70 222.37,479.44 222.37,342.06 236.61,479.76 236.61,371.20 250.85,479.21 250.85,352.46 265.08,479.57 265.08,285.11 279.32,479.53 279.32,314.29 293.56,479.29 293.56,294.44 307.80,479.76 307.80,332.93 322.03,479.49 322.03,325.15 336.27,479.78 336.27,309.47 350.51,479.33 350.51,314.69 364.75,479.51 364.75,342.57 378.98,479.60 378.98,284.65 393.22,479.44 393.22,258.84 407.46,478.97 407.46,319.28 421.69,479.18 421.69,269.67 435.93,479.44 435.93,280.33 450.17,479.27 450.17,207.20 464.41,479.07 464.41,282.25 478.64,479.23 478.64,200.10 492.88,479.19 492.88,250.75 507.12,478.77 507.12,252.80 521.36,479.69 521.36,280.48 535.59,479.53 535.59,299.27 549.83,479.27 549.83,306.38 564.07,478.92 564.07,381.36 578.31,479.06 578.31,324.62 592.54,479.35 592.54,242.68 606.78,479.11 606.78,302.35 621.02,479.24 621.02,232.19 635.25,479.34 635.25,245.48 649.49,478.83 649.49,121.13 663.73,479.03 663.73,379.93 677.97,479.31 677.97,213.49 692.20,478.84 692.20,329.50 706.44,478.99 706.44,309.09 720.68,479.05 720.68,233.69 734.92,478.99 734.92,329.01 749.15,479.13 749.15,197.52 763.39,479.17 763.39,140.19 777.63,478.30 777.63,286.78 791.86,478.21 791.86,290.23 806.10,479.28 806.10,164.84 820.34,477.08 820.34,298.18 834.58,477.15 834.58,226.27 848.81,478.18 848.81,241.67 863.05,479.17 863.05,234.00 877.29,477.41 877.29,226.90 891.53,477.34 891.53,265.86 905.76,479.65 905.76,200.57 920.00,479.09 920.00,199.90" fill="none" stroke="#1f77b4" stroke-width="2"/>
<circle cx="80.00" cy="475.44" r="2.5" fill="#1f77b4"/>
<circle cx="80.00" cy="347.87" r="2.5" fill="#1f77b4"/>
<circle cx="94.24" cy="477.49" r="2.5" fill="#1f77b4"/>
<circle cx="94.24" cy="306.23" r="2.5" fill="#1f77b4"/>
<circle cx="108.47" cy="479.80" r="2.5" fill="#1f77b4"/>
<circle cx="108.47" cy="377.54" r="2.5" fill="#1f77b4"/>
<circle cx="122.71" cy="480.00" r="2.5" fill="#1f77b4"/>
<circle cx="122.71" cy="391.70" r="2.5" fill="#1f77b4"/>
<circle cx="136.95" cy="479.75" r="2.5" fill="#1f77b4"/>
<circle cx="136.95" cy="364.90" r="2.5" fill="#1f77b4"/>
<circle cx="151.19" cy="479.45" r="2.5" fill="#1f77b4"/>
<circle cx="151.19" cy="299.95" r="2.5" fill="#1f77b4"/>
<circle cx="165.42" cy="479.44" r="2.5" fill="#1f77b4"/>
<circle cx="165.42" cy="371.37" r="2.5" fill="#1f77b4"/>
<circle cx="179.66" cy="479.57" r="2.5" fill="#1f77b4"/>
<circle cx="179.66" cy="359.31" r="2.5" fill="#1f77b4"/>
<circle cx="193.90" cy="479.98" r="2.5" fill="#1f77b4"/>
<circle cx="193.90" cy="371.39" r="2.5" fill="#1f77b4"/>
<circle cx="208.14" cy="479.10" r="2.5" fill="#1f77b4"/>
<circle cx="208.14" cy="322.70" r="2.5" fill="#1f77b4"/>
<circle cx="222.37" cy="479.44" r="2.5" fill="#1f77b4"/>
<circle cx="222.37" cy="342.06" r="2.5" fill="#1f77b4"/>
<circle cx="236.61" cy="479.76" r="2.5" fill="#1f77b4"/>
<circle cx="236.61" cy="371.20" r="2.5" fill="#1f77b4"/>
<circle cx="250.85" cy="479.21" r="2.5" fill="#1f77b4"/>
<circle cx="250.85" cy="352.46" r="2.5" fill="#1f77b4"/>
<circle cx="265.08" cy="479.57" r="2.5" fill="#1f77b4"/>
<circle cx="265.08" cy="285.11" r="2.5" fill="#1f77b4"/>
<circle cx="279.32" cy="479.53" r="2.5" fill="#1f77b4"/>
<circle cx="279.32" cy="314.29" r="2.5" fill="#1f77b4"/>
<circle cx="293.56" cy="479.29" r="2.5" fill="#1f77b4"/>
<circle cx="293.56" cy="294.44" r="2.5" fill="#1f77b4"/>
<circle cx="307.80" cy="479.76" r="2.5" fill="#1f77b4"/>
<circle cx="307.80" cy="332.93" r="2.5" fill="#1f77b4"/>
<circle cx="322.03" cy="479.49" r="2.5" fill="#1f77b4"/>
<circle cx="322.03" cy="325.15" r="2.5" fill="#1f77b4"/>
<circle cx="336.27" cy="479.78" r="2.5" fill="#1f77b4"/>
<circle cx="336.27" cy="309.47" r="2.5" fill="#1f77b4"/>
<circle cx="350.51" cy="479.33" r="2.5" fill="#1f77b4"/>
<circle cx="350.51" cy="314.69" r="2.5" fill="#1f77b4"/>
<circle cx="364.75" cy="479.51" r="2.5" fill="#1f77b4"/>
<circle cx="364.75" cy="342.57" r="2.5" fill="#1f77b4"/>
<circle cx="378.98" cy="479.60" r="2.5" fill="#1f77b4"/>
<circle cx="378.98" cy="284.65" r="2.5" fill="#1f77b4"/>
<circle cx="393.22" cy="479.44" r="2.5" fill="#1f77b4"/>
<circle cx="393.22" cy="258.84" r="2.5" fill="#1f77b4"/>
<circle cx="407.46" cy="478.97" r="2.5" fill="#1f77b4"/>
<circle cx="407.46" cy="319.28" r="2.5" fill="#1f77b4"/>
<circle cx="421.69" cy="479.18" r="2.5" fill="#1f77b4"/>
<circle cx="421.69" cy="269.67" r="2.5" fill="#1f77b4"/>
<circle cx="435.93" cy="479.44" r="2.5" fill="#1f77b4"/>
<circle cx="435.93" cy="280.33" r="2.5" fill="#1f77b4"/>
<circle cx="450.17" cy="479.27" r="2.5" fill="#1f77b4"/>
<circle cx="450.17" cy="207.20" r="2.5" fill="#1f77b4"/>
<circle cx="464.41" cy="479.07" r="2.5" fill="#1f77b4"/>
<circle cx="464.41" cy="282.25" r="2.5" fill="#1f77b4"/>
<circle cx="478.64" cy="479.23" r="2.5" fill="#1f77b4"/>
<circle cx="478.64" cy="200.10" r="2.5" fill="#1f77b4"/>
<circle cx="492.88" cy="479.19" r="2.5" fill="#1f77b4"/>
<circle cx="492.88" cy="250.75" r="2.5" fill="#1f77b4"/>
<circle cx="507.12" cy="478.77" r="2.5" fill="#1f77b4"/>
<circle cx="507.12" cy="252.80" r="2.5" fill="#1f77b4"/>
<circle cx="521.36" cy="479.69" r="2.5" fill="#1f77b4"/>
<circle cx="521.36" cy="280.48" r="2.5" fill="#1f77b4"/>
<circle cx="535.59" cy="479.53" r="2.5" fill="#1f77b4"/>
<circle cx="535.59" cy="299.27" r="2.5" fill="#1f77b4"/>
<circle cx="549.83" cy="479.27" r="2.5" fill="#1f77b4"/>
<circle cx="549.83" cy="306.38" r="2.5" fill="#1f77b4"/>
<circle cx="564.07" cy="478.92" r="2.5" fill="#1f77b4"/>
<circle cx="564.07" cy="381.36" r="2.5" fill="#1f77b4"/>
<circle cx="578.31" cy="479.06" r="2.5" fill="#1f77b4"/>
<circle cx="578.31" cy="324.62" r="2.5" fill="#1f77b4"/>
<circle cx="592.54" cy="479.35" r="2.5" fill="#1f77b4"/>
<circle cx="592.54" cy="242.68" r="2.5" fill="#1f77b4"/>
<circle cx="606.78" cy="479.11" r="2.5" fill="#1f77b4"/>
<circle cx="606.78" cy="302.35" r="2.5" fill="#1f77b4"/>
<circle cx="621.02" cy="479.24" r="2.5" fill="#1f77b4"/>
<circle cx="621.02" cy="232.19" r="2.5" fill="#1f77b4"/>
<circle cx="635.25" cy="479.34" r="2.5" fill="#1f77b4"/>
<circle cx="635.25" cy="245.48" r="2.5" fill="#1f77b4"/>
<circle cx="649.49" cy="478.83" r="2.5" fill="#1f77b4"/>
<circle cx="649.49" cy="121.13" r="2.5" fill="#1f77b4"/>
<circle cx="663.73" cy="479.03" r="2.5" fill="#1f77b4"/>
<circle cx="663.73" cy="379.93" r="2.5" fill="#1f77b4"/>
<circle cx="677.97" cy="479.31" r="2.5" fill="#1f77b4"/>
<circle cx="677.97" cy="213.49" r="2.5" fill="#1f77b4"/>
<circle cx="692.20" cy="478.84" r="2.5" fill="#1f77b4"/>
<circle cx="692.20" cy="329.50" r="2.5" fill="#1f77b4"/>
<circle cx="706.44" cy="478.99" r="2.5" fill="#1f77b4"/>
<circle cx="706.44" cy="309.09" r="2.5" fill="#1f77b4"/>
<circle cx="720.68" cy="479.05" r="2.5" fill="#1f77b4"/>
<circle cx="720.68" cy="233.69" r="2.5" fill="#1f77b4"/>
<circle cx="734.92" cy="478.99" r="2.5" fill="#1f77b4"/>
<circle cx="734.92" cy="329.01" r="2.5" fill="#1f77b4"/>
<circle cx="749.15" cy="479.13" r="2.5" fill="#1f77b4"/>
<circle cx="749.15" cy="197.52" r="2.5" fill="#1f77b4"/>
<circle cx="763.39" cy="479.17" r="2.5" fill="#1f77b4"/>
<circle cx="763.39" cy="140.19" r="2.5" fill="#1f77b4"/>
<circle cx="777.63" cy="478.30" r="2.5" fill="#1f77b4"/>
<circle cx="777.63" cy="286.78" r="2.5" fill="#1f77b4"/>
<circle cx="791.86" cy="478.21" r="2.5" fill="#1f77b4"/>
<circle cx="791.86" cy="290.23" r="2.5" fill="#1f77b4"/>
<circle cx="806.10" cy="479.28" r="2.5" fill="#1f77b4"/>
<circle cx="806.10" cy="164.84" r="2.5" fill="#1f77b4"/>
<circle cx="820.34" cy="477.08" r="2.5" fill="#1f77b4"/>
<circle cx="820.34" cy="298.18" r="2.5" fill="#1f77b4"/>
<circle cx="834.58" cy="477.15" r="2.5" fill="#1f77b4"/>
<circle cx="834.58" cy="226.27" r="2.5" fill="#1f77b4"/>
<circle cx="848.81" cy="478.18" r="2.5" fill="#1f77b4"/>
<circle cx="848.81" cy="241.67" r="2.5" fill="#1f77b4"/>
<circle cx="863.05" cy="479.17" r="2.5" fill="#1f77b4"/>
<circle cx="863.05" cy="234.00" r="2.5" fill="#1f77b4"/>
<circle cx="877.29" cy="477.41" r="2.5" fill="#1f77b4"/>
<circle cx="877.29" cy="226.90" r="2.5" fill="#1f77b4"/>
<circle cx="891.53" cy="477.34" r="2.5" fill="#1f77b4"/>
<circle cx="891.53" cy="265.86" r="2.5" fill="#1f77b4"/>
<circle cx="905.76" cy="479.65" r="2.5" fill="#1f77b4"/>
<circle cx="905.76" cy="200.57" r="2.5" fill="#1f77b4"/>
<circle cx="920.00" cy="479.09" r="2.5" fill="#1f77b4"/>
<circle cx="920.00" cy="199.90" r="2.5" fill="#1f77b4"/>
<rect x="690" y="60" width="12" height="12" fill="#1f77b4"/>
<text x="708" y="70" font-family="sans-serif" font-size="12">Independent Learner - Full RL</text>
<polyline points="80.00,455.54 80.00,249.42 94.24,473.01 94.24,256.02 108.47,444.66 108.47,432.66 122.71,457.25 122.71,376.54 136.95,461.67 136.95,386.14 151.19,450.33 151.19,449.89 165.42,450.96 165.42,422.52 179.66,453.64 179.66,450.34 193.90,449.11 193.90,434.67 208.14,459.67 208.14,440.74 222.37,473.61 222.37,438.08 236.61,460.78 236.61,444.17 250.85,469.33 250.85,453.53 265.08,470.35 265.08,438.07 279.32,461.83 279.32,441.35 293.56,458.24 293.56,425.38 307.80,464.21 307.80,437.86 322.03,457.67 322.03,446.92 336.27,472.75 336.27,441.09 350.51,465.55 350.51,417.99 364.75,465.23 364.75,429.09 378.98,462.42 378.98,446.44 393.22,470.70 393.22,399.52 407.46,464.95 407.46,384.61 421.69,469.90 421.69,424.91 435.93,471.28 435.93,454.10 450.17,461.86 450.17,430.14 464.41,471.75 464.41,449.96 478.64,468.47 478.64,436.17 492.88,461.84 492.88,440.40 507.12,470.82 507.12,447.83 521.36,463.28 521.36,408.01 535.59,467.80 535.59,419.81 549.83,456.68 549.83,437.88 564.07,463.04 564.07,447.84 578.31,468.79 578.31,460.20 592.54,470.42 592.54,433.07 606.78,470.16 606.78,422.16 621.02,459.13 621.02,453.26 635.25,471.42 635.25,384.63 649.49,458.57 649.49,454.24 663.73,456.54 663.73,434.75 677.97,474.97 677.97,419.10 692.20,461.28 692.20,443.04 706.44,455.69 706.44,424.95 720.68,471.87 720.68,454.02 734.92,464.54 734.92,391.68 749.15,465.35 749.15,378.37 763.39,464.71 763.39,416.25 777.63,472.87 777.63,438.87 791.86,465.59 791.86,445.11 806.10,468.59 806.10,355.02 820.34,470.29 820.34,451.12 834.58,464.75 834.58,427.11 848.81,477.38 848.81,439.59 863.05,477.31 863.05,457.83 877.29,476.65 877.29,445.14 891.53,473.64 891.53,470.54 905.76,471.81 905.76,459.28 920.00,462.16 920.00,457.55" fill="none" stroke="#ff7f0e" stroke-width="2"/>
<circle cx="80.00" cy="455.54" r="2.5" fill="#ff7f0e"/>
<circle cx="80.00" cy="249.42" r="2.5" fill="#ff7f0e"/>
<circle cx="94.24" cy="473.01" r="2.5" fill="#ff7f0e"/>
<circle cx="94.24" cy="256.02" r="2.5" fill="#ff7f0e"/>
<circle cx="108.47" cy="444.66" r="2.5" fill="#ff7f0e"/>
<circle cx="108.47" cy="432.66" r="2.5" fill="#ff7f0e"/>
<circle cx="122.71" cy="457.25" r="2.5" fill="#ff7f0e"/>
<circle cx="122.71" cy="376.54" r="2.5" fill="#ff7f0e"/>
<circle cx="136.95" cy="461.67" r="2.5" fill="#ff7f0e"/>
<circle cx="136.95" cy="386.14" r="2.5" fill="#ff7f0e"/>
<circle cx="151.19" cy="450.33" r="2.5" fill="#ff7f0e"/>
<circle cx="151.19" cy="449.89" r="2.5" fill="#ff7f0e"/>
<circle cx="165.42" cy="450.96" r="2.5" fill="#ff7f0e"/>
<circle cx="165.42" cy="422.52" r="2.5" fill="#ff7f0e"/>
<circle cx="179.66" cy="453.64" r="2.5" fill="#ff7f0e"/>
<circle cx="179.66" cy="450.34" r="2.5" fill="#ff7f0e"/>
<circle cx="193.90" cy="449.11" r="2.5" fill="#ff7f0e"/>
<circle cx="193.90" cy="434.67" r="2.5" fill="#ff7f0e"/>
<circle cx="208.14" cy="459.67" r="2.5" fill="#ff7f0e"/>
<circle cx="208.14" cy="440.74" r="2.5" fill="#ff7f0e"/>
<circle cx="222.37" cy="473.61" r="2.5" fill="#ff7f0e"/>
<circle cx="222.37" cy="438.08" r="2.5" fill="#ff7f0e"/>
<circle cx="236.61" cy="460.78" r="2.5" fill="#ff7f0e"/>
<circle cx="236.61" cy="444.17" r="2.5" fill="#ff7f0e"/>
<circle cx="250.85" cy="469.33" r="2.5" fill="#ff7f0e"/>
<circle cx="250.85" cy="453.53" r="2.5" fill="#ff7f0e"/>
<circle cx="265.08" cy="470.35" r="2.5" fill="#ff7f0e"/>
<circle cx="265.08" cy="438.07" r="2.5" fill="#ff7f0e"/>
<circle cx="279.32" cy="461.83" r="2.5" fill="#ff7f0e"/>
<circle cx="279.32" cy="441.35" r="2.5" fill="#ff7f0e"/>
<circle cx="293.56" cy="458.24" r="2.5" fill="#ff7f0e"/>
<circle cx="293.56" cy="425.38" r="2.5" fill="#ff7f0e"/>
<circle cx="307.80" cy="464.21" r="2.5" fill="#ff7f0e"/>
<circle cx="307.80" cy="437.86" r="2.5" fill="#ff7f0e"/>
<circle cx="322.03" cy="457.67" r="2.5" fill="#ff7f0e"/>
<circle cx="322.03" cy="446.92" r="2.5" fill="#ff7f0e"/>
<circle cx="336.27" cy="472.75" r="2.5" fill="#ff7f0e"/>
<circle cx="336.27" cy="441.09" r="2.5" fill="#ff7f0e"/>
<circle cx="350.51" cy="465.55" r="2.5" fill="#ff7f0e"/>
<circle cx="350.51" cy="417.99" r="2.5" fill="#ff7f0e"/>
<circle cx="364.75" cy="465.23" r="2.5" fill="#ff7f0e"/>
<circle cx="364.75" cy="429.09" r="2.5" fill="#ff7f0e"/>
<circle cx="378.98" cy="462.42" r="2.5" fill="#ff7f0e"/>
<circle cx="378.98" cy="446.44" r="2.5" fill="#ff7f0e"/>
<circle cx="393.22" cy="470.70" r="2.5" fill="#ff7f0e"/>
<circle cx="393.22" cy="399.52" r="2.5" fill="#ff7f0e"/>
<circle cx="407.46" cy="464.95" r="2.5" fill="#ff7f0e"/>
<circle cx="407.46" cy="384.61" r="2.5" fill="#ff7f0e"/>
<circle cx="421.69" cy="469.90" r="2.5" fill="#ff7f0e"/>
<circle cx="421.69" cy="424.91" r="2.5" fill="#ff7f0e"/>
<circle cx="435.93" cy="471.28" r="2.5" fill="#ff7f0e"/>
<circle cx="435.93" cy="454.10" r="2.5" fill="#ff7f0e"/>
<circle cx="450.17" cy="461.86" r="2.5" fill="#ff7f0e"/>
<circle cx="450.17" cy="430.14" r="2.5" fill="#ff7f0e"/>
<circle cx="464.41" cy="471.75" r="2.5" fill="#ff7f0e"/>
<circle cx="464.41" cy="449.96" r="2.5" fill="#ff7f0e"/>
<circle cx="478.64" cy="468.47" r="2.5" fill="#ff7f0e"/>
<circle cx="478.64" cy="436.17" r="2.5" fill="#ff7f0e"/>
<circle cx="492.88" cy="461.84" r="2.5" fill="#ff7f0e"/>
<circle cx="492.88" cy="440.40" r="2.5" fill="#ff7f0e"/>
<circle cx="507.12" cy="470.82" r="2.5" fill="#ff7f0e"/>
<circle cx="507.12" cy="447.83" r="2.5" fill="#ff7f0e"/>
<circle cx="521.36" cy="463.28" r="2.5" fill="#ff7f0e"/>
<circle cx="521.36" cy="408.01" r="2.5" fill="#ff7f0e"/>
<circle cx="535.59" cy="467.80" r="2.5" fill="#ff7f0e"/>
<circle cx="535.59" cy="419.81" r="2.5" fill="#ff7f0e"/>
<circle cx="549.83" cy="456.68" r="2.5" fill="#ff7f0e"/>
<circle cx="549.83" cy="437.88" r="2.5" fill="#ff7f0e"/>
<circle cx="564.07" cy="463.04" r="2.5" fill="#ff7f0e"/>
<circle cx="564.07" cy="447.84" r="2.5" fill="#ff7f0e"/>
<circle cx="578.31" cy="468.79" r="2.5" fill="#ff7f0e"/>
<circle cx="578.31" cy="460.20" r="2.5" fill="#ff7f0e"/>
<circle cx="592.54" cy="470.42" r="2.5" fill="#ff7f0e"/>
<circle cx="592.54" cy="433.07" r="2.5" fill="#ff7f0e"/>
<circle cx="606.78" cy="470.16" r="2.5" fill="#ff7f0e"/>
<circle cx="606.78" cy="422.16" r="2.5" fill="#ff7f0e"/>
<circle cx="621.02" cy="459.13" r="2.5" fill="#ff7f0e"/>
<circle cx="621.02" cy="453.26" r="2.5" fill="#ff7f0e"/>
<circle cx="635.25" cy="471.42" r="2.5" fill="#ff7f0e"/>
<circle cx="635.25" cy="384.63" r="2.5" fill="#ff7f0e"/>
<circle cx="649.49" cy="458.57" r="2.5" fill="#ff7f0e"/>
<circle cx="649.49" cy="454.24" r="2.5" fill="#ff7f0e"/>
<circle cx="663.73" cy="456.54" r="2.5" fill="#ff7f0e"/>
<circle cx="663.73" cy="434.75" r="2.5" fill="#ff7f0e"/>
<circle cx="677.97" cy="474.97" r="2.5" fill="#ff7f0e"/>
<circle cx="677.97" cy="419.10" r="2.5" fill="#ff7f0e"/>
<circle cx="692.20" cy="461.28" r="2.5" fill="#ff7f0e"/>
<circle cx="692.20" cy="443.04" r="2.5" fill="#ff7f0e"/>
<circle cx="706.44" cy="455.69" r="2.5" fill="#ff7f0e"/>
<circle cx="706.44" cy="424.95" r="2.5" fill="#ff7f0e"/>
<circle cx="720.68" cy="471.87" r="2.5" fill="#ff7f0e"/>
<circle cx="720.68" cy="454.02" r="2.5" fill="#ff7f0e"/>
<circle cx="734.92" cy="464.54" r="2.5" fill="#ff7f0e"/>
<circle cx="734.92" cy="391.68" r="2.5" fill="#ff7f0e"/>
<circle cx="749.15" cy="465.35" r="2.5" fill="#ff7f0e"/>
<circle cx="749.15" cy="378.37" r="2.5" fill="#ff7f0e"/>
<circle cx="763.39" cy="464.71" r="2.5" fill="#ff7f0e"/>
<circle cx="763.39" cy="416.25" r="2.5" fill="#ff7f0e"/>
<circle cx="777.63" cy="472.87" r="2.5" fill="#ff7f0e"/>
<circle cx="777.63" cy="438.87" r="2.5" fill="#ff7f0e"/>
<circle cx="791.86" cy="465.59" r="2.5" fill="#ff7f0e"/>
<circle cx="791.86" cy="445.11" r="2.5" fill="#ff7f0e"/>
<circle cx="806.10" cy="468.59" r="2.5" fill="#ff7f0e"/>
<circle cx="806.10" cy="355.02" r="2.5" fill="#ff7f0e"/>
<circle cx="820.34" cy="470.29" r="2.5" fill="#ff7f0e"/>
<circle cx="820.34" cy="451.12" r="2.5" fill="#ff7f0e"/>
<circle cx="834.58" cy="464.75" r="2.5" fill="#ff7f0e"/>
<circle cx="834.58" cy="427.11" r="2.5" fill="#ff7f0e"/>
<circle cx="848.81" cy="477.38" r="2.5" fill="#ff7f0e"/>
<circle cx="848.81" cy="439.59" r="2.5" fill="#ff7f0e"/>
<circle cx="863.05" cy="477.31" r="2.5" fill="#ff7f0e"/>
<circle cx="863.05" cy="457.83" r="2.5" fill="#ff7f0e"/>
<circle cx="877.29" cy="476.65" r="2.5" fill="#ff7f0e"/>
<circle cx="877.29" cy="445.14" r="2.5" fill="#ff7f0e"/>
<circle cx="891.53" cy="473.64" r="2.5" fill="#ff7f0e"/>
<circle cx="891.53" cy="470.54" r="2.5" fill="#ff7f0e"/>
<circle cx="905.76" cy="471.81" r="2.5" fill="#ff7f0e"/>
<circle cx="905.76" cy="459.28" r="2.5" fill="#ff7f0e"/>
<circle cx="920.00" cy="462.16" r="2.5" fill="#ff7f0e"/>
<circle cx="920.00" cy="457.55" r="2.5" fill="#ff7f0e"/>
<rect x="690" y="80" width="12" height="12" fill="#ff7f0e"/>
<text x="708" y="90" font-family="sans-serif" font-size="12">Independent Learner - QPLF</text>
<polyline points="80.00,467.73 80.00,332.40 94.24,477.59 94.24,307.78 108.47,473.50 108.47,343.44 122.71,479.49 122.71,309.15 136.95,479.73 136.95,314.52 151.19,479.50 151.19,289.14 165.42,479.46 165.42,268.30 179.66,479.65 179.66,246.82 193.90,479.67 193.90,292.17 208.14,479.33 208.14,310.99 222.37,479.60 222.37,308.05 236.61,479.52 236.61,242.81 250.85,479.50 250.85,332.24 265.08,479.56 265.08,327.63 279.32,479.28 279.32,302.37 293.56,479.35 293.56,300.10 307.80,479.56 307.80,259.44 322.03,479.35 322.03,281.36 336.27,479.72 336.27,283.63 350.51,479.32 350.51,238.91 364.75,479.71 364.75,316.05 378.98,479.80 378.98,275.57 393.22,479.76 393.22,300.25 407.46,479.36 407.46,257.88 421.69,479.04 421.69,152.29 435.93,479.36 435.93,256.48 450.17,479.12 450.17,207.36 464.41,479.38 464.41,216.22 478.64,350.76 478.64,70.00 492.88,479.26 492.88,202.17 507.12,479.01 507.12,214.87 521.36,479.51 521.36,284.29 535.59,479.36 535.59,191.86 549.83,479.38 549.83,220.44 564.07,479.04 564.07,208.45 578.31,479.03 578.31,210.23 592.54,479.29 592.54,223.69 606.78,479.46 606.78,149.90 621.02,479.15 621.02,215.68 635.25,479.18 635.25,159.75 649.49,478.40 649.49,100.30 663.73,479.10 663.73,237.13 677.97,479.14 677.97,227.50 692.20,479.10 692.20,210.04 706.44,479.22 706.44,263.43 720.68,479.08 720.68,161.93 734.92,478.93 734.92,221.19 749.15,479.19 749.15,164.49 763.39,479.33 763.39,193.60 777.63,479.37 777.63,198.37 791.86,479.11 791.86,236.83 806.10,479.08 806.10,202.36 820.34,478.87 820.34,264.65 834.58,478.87 834.58,219.18 848.81,479.18 848.81,191.19 863.05,479.47 863.05,184.85 877.29,479.26 877.29,152.42 891.53,479.21 891.53,224.32 905.76,479.72 905.76,220.50 920.00,479.02 920.00,295.63" fill="none" stroke="#2ca02c" stroke-width="2"/>
<circle cx="80.00" cy="467.73" r="2.5" fill="#2ca02c"/>
<circle cx="80.00" cy="332.40" r="2.5" fill="#2ca02c"/>
<circle cx="94.24" cy="477.59" r="2.5" fill="#2ca02c"/>
<circle cx="94.24" cy="307.78" r="2.5" fill="#2ca02c"/>
<circle cx="108.47" cy="473.50" r="2.5" fill="#2ca02c"/>
<circle cx="108.47" cy="343.44" r="2.5" fill="#2ca02c"/>
<circle cx="122.71" cy="479.49" r="2.5" fill="#2ca02c"/>
<circle cx="122.71" cy="309.15" r="2.5" fill="#2ca02c"/>
<circle cx="136.95" cy="479.73" r="2.5" fill="#2ca02c"/>
<circle cx="136.95" cy="314.52" r="2.5" fill="#2ca02c"/>
<circle cx="151.19" cy="479.50" r="2.5" fill="#2ca02c"/>
<circle cx="151.19" cy="289.14" r="2.5" fill="#2ca02c"/>
<circle cx="165.42" cy="479.46" r="2.5" fill="#2ca02c"/>
<circle cx="165.42" cy="268.30" r="2.5" fill="#2ca02c"/>
<circle cx="179.66" cy="479.65" r="2.5" fill="#2ca02c"/>
<circle cx="179.66" cy="246.82" r="2.5" fill="#2ca02c"/>
<circle cx="193.90" cy="479.67" r="2.5" fill="#2ca02c"/>
<circle cx="193.90" cy="292.17" r="2.5" fill="#2ca02c"/>
<circle cx="208.14" cy="479.33" r="2.5" fill="#2ca02c"/>
<circle cx="208.14" cy="310.99" r="2.5" fill="#2ca02c"/>
<circle cx="222.37" cy="479.60" r="2.5" fill="#2ca02c"/>
<circle cx="222.37" cy="308.05" r="2.5" fill="#2ca02c"/>
<circle cx="236.61" cy="479.52" r="2.5" fill="#2ca02c"/>
<circle cx="236.61" cy="242.81" r="2.5" fill="#2ca02c"/>
<circle cx="250.85" cy="479.50" r="2.5" fill="#2ca02c"/>
<circle cx="250.85" cy="332.24" r="2.5" fill="#2ca02c"/>
<circle cx="265.08" cy="479.56" r="2.5" fill="#2ca02c"/>
<circle cx="265.08" cy="327.63" r="2.5" fill="#2ca02c"/>
<circle cx="279.32" cy="479.28" r="2.5" fill="#2ca02c"/>
<circle cx="279.32" cy="302.37" r="2.5" fill="#2ca02c"/>
<circle cx="293.56" cy="479.35" r="2.5" fill="#2ca02c"/>
<circle cx="293.56" cy="300.10" r="2.5" fill="#2ca02c"/>
<circle cx="307.80" cy="479.56" r="2.5" fill="#2ca02c"/>
<circle cx="307.80" cy="259.44" r="2.5" fill="#2ca02c"/>
<circle cx="322.03" cy="479.35" r="2.5" fill="#2ca02c"/>
<circle cx="322.03" cy="281.36" r="2.5" fill="#2ca02c"/>
<circle cx="336.27" cy="479.72" r="2.5" fill="#2ca02c"/>
<circle cx="336.27" cy="283.63" r="2.5" fill="#2ca02c"/>
<circle cx="350.51" cy="479.32" r="2.5" fill="#2ca02c"/>
<circle cx="350.51" cy="238.91" r="2.5" fill="#2ca02c"/>
<circle cx="364.75" cy="479.71" r="2.5" fill="#2ca02c"/>
<circle cx="364.75" cy="316.05" r="2.5" fill="#2ca02c"/>
<circle cx="378.98" cy="479.80" r="2.5" fill="#2ca02c"/>
<circle cx="378.98" cy="275.57" r="2.5" fill="#2ca02c"/>
<circle cx="393.22" cy="479.76" r="2.5" fill="#2ca02c"/>
<circle cx="393.22" cy="300.25" r="2.5" fill="#2ca02c"/>
<circle cx="407.46" cy="479.36" r="2.5" fill="#2ca02c"/>
<circle cx="407.46" cy="257.88" r="2.5" fill="#2ca02c"/>
<circle cx="421.69" cy="479.04" r="2.5" fill="#2ca02c"/>
<circle cx="421.69" cy="152.29" r="2.5" fill="#2ca02c"/>
<circle cx="435.93" cy="479.36" r="2.5" fill="#2ca02c"/>
<circle cx="435.93" cy="256.48" r="2.5" fill="#2ca02c"/>
<circle cx="450.17" cy="479.12" r="2.5" fill="#2ca02c"/>
<circle cx="450.17" cy="207.36" r="2.5" fill="#2ca02c"/>
<circle cx="464.41" cy="479.38" r="2.5" fill="#2ca02c"/>
<circle cx="464.41" cy="216.22" r="2.5" fill="#2ca02c"/>
<circle cx="478.64" cy="350.76" r="2.5" fill="#2ca02c"/>
<circle cx="478.64" cy="70.00" r="2.5" fill="#2ca02c"/>
<circle cx="492.88" cy="479.26" r="2.5" fill="#2ca02c"/>
<circle cx="492.88" cy="202.17" r="2.5" fill="#2ca02c"/>
<circle cx="507.12" cy="479.01" r="2.5" fill="#2ca02c"/>
<circle cx="507.12" cy="214.87" r="2.5" fill="#2ca02c"/>
<circle cx="521.36" cy="479.51" r="2.5" fill="#2ca02c"/>
<circle cx="521.36" cy="284.29" r="2.5" fill="#2ca02c"/>
<circle cx="535.59" cy="479.36" r="2.5" fill="#2ca02c"/>
<circle cx="535.59" cy="191.86" r="2.5" fill="#2ca02c"/>
<circle cx="549.83" cy="479.38" r="2.5" fill="#2ca02c"/>
<circle cx="549.83" cy="220.44" r="2.5" fill="#2ca02c"/>
<circle cx="564.07" cy="479.04" r="2.5" fill="#2ca02c"/>
<circle cx="564.07" cy="208.45" r="2.5" fill="#2ca02c"/>
<circle cx="578.31" cy="479.03" r="2.5" fill="#2ca02c"/>
<circle cx="578.31" cy="210.23" r="2.5" fill="#2ca02c"/>
<circle cx="592.54" cy="479.29" r="2.5" fill="#2ca02c"/>
<circle cx="592.54" cy="223.69" r="2.5" fill="#2ca02c"/>
<circle cx="606.78" cy="479.46" r="2.5" fill="#2ca02c"/>
<circle cx="606.78" cy="149.90" r="2.5" fill="#2ca02c"/>
<circle cx="621.02" cy="479.15" r="2.5" fill="#2ca02c"/>
<circle cx="621.02" cy="215.68" r="2.5" fill="#2ca02c"/>
<circle cx="635.25" cy="479.18" r="2.5" fill="#2ca02c"/>
<circle cx="635.25" cy="159.75" r="2.5" fill="#2ca02c"/>
<circle cx="649.49" cy="478.40" r="2.5" fill="#2ca02c"/>
<circle cx="649.49" cy="100.30" r="2.5" fill="#2ca02c"/>
<circle cx="663.73" cy="479.10" r="2.5" fill="#2ca02c"/>
<circle cx="663.73" cy="237.13" r="2.5" fill="#2ca02c"/>
<circle cx="677.97" cy="479.14" r="2.5" fill="#2ca02c"/>
<circle cx="677.97" cy="227.50" r="2.5" fill="#2ca02c"/>
<circle cx="692.20" cy="479.10" r="2.5" fill="#2ca02c"/>
<circle cx="692.20" cy="210.04" r="2.5" fill="#2ca02c"/>
<circle cx="706.44" cy="479.22" r="2.5" fill="#2ca02c"/>
<circle cx="706.44" cy="263.43" r="2.5" fill="#2ca02c"/>
<circle cx="720.68" cy="479.08" r="2.5" fill="#2ca02c"/>
<circle cx="720.68" cy="161.93" r="2.5" fill="#2ca02c"/>
<circle cx="734.92" cy="478.93" r="2.5" fill="#2ca02c"/>
<circle cx="734.92" cy="221.19" r="2.5" fill="#2ca02c"/>
<circle cx="749.15" cy="479.19" r="2.5" fill="#2ca02c"/>
<circle cx="749.15" cy="164.49" r="2.5" fill="#2ca02c"/>
<circle cx="763.39" cy="479.33" r="2.5" fill="#2ca02c"/>
<circle cx="763.39" cy="193.60" r="2.5" fill="#2ca02c"/>
<circle cx="777.63" cy="479.37" r="2.5" fill="#2ca02c"/>
<circle cx="777.63" cy="198.37" r="2.5" fill="#2ca02c"/>
<circle cx="791.86" cy="479.11" r="2.5" fill="#2ca02c"/>
<circle cx="791.86" cy="236.83" r="2.5" fill="#2ca02c"/>
<circle cx="806.10" cy="479.08" r="2.5" fill="#2ca02c"/>
<circle cx="806.10" cy="202.36" r="2.5" fill="#2ca02c"/>
<circle cx="820.34" cy="478.87" r="2.5" fill="#2ca02c"/>
<circle cx="820.34" cy="264.65" r="2.5" fill="#2ca02c"/>
<circle cx="834.58" cy="478.87" r="2.5" fill="#2ca02c"/>
<circle cx="834.58" cy="219.18" r="2.5" fill="#2ca02c"/>
<circle cx="848.81" cy="479.18" r="2.5" fill="#2ca02c"/>
<circle cx="848.81" cy="191.19" r="2.5" fill="#2ca02c"/>
<circle cx="863.05" cy="479.47" r="2.5" fill="#2ca02c"/>
<circle cx="863.05" cy="184.85" r="2.5" fill="#2ca02c"/>
<circle cx="877.29" cy="479.26" r="2.5" fill="#2ca02c"/>
<circle cx="877.29" cy="152.42" r="2.5" fill="#2ca02c"/>
<circle cx="891.53" cy="479.21" r="2.5" fill="#2ca02c"/>
<circle cx="891.53" cy="224.32" r="2.5" fill="#2ca02c"/>
<circle cx="905.76" cy="479.72" r="2.5" fill="#2ca02c"/>
<circle cx="905.76" cy="220.50" r="2.5" fill="#2ca02c"/>
<circle cx="920.00" cy="479.02" r="2.5" fill="#2ca02c"/>
<circle cx="920.00" cy="295.63" r="2.5" fill="#2ca02c"/>
<rect x="690" y="100" width="12" height="12" fill="#2ca02c"/>
<text x="708" y="110" font-family="sans-serif" font-size="12">Semi-Coordinated - Full RL</text>
<polyline points="80.00,453.67 80.00,263.67 94.24,464.55 94.24,270.75 108.47,462.54 108.47,319.41 122.71,453.60 122.71,328.27 136.95,436.55 136.95,370.44 151.19,441.02 151.19,388.06 165.42,440.33 165.42,417.65 179.66,464.46 179.66,435.47 193.90,437.17 193.90,430.16 208.14,447.39 208.14,442.53 222.37,434.82 222.37,432.98 236.61,448.81 236.61,437.54 250.85,440.23 250.85,437.10 265.08,447.29 265.08,444.81 279.32,436.65 279.32,434.56 293.56,442.55 293.56,420.02 307.80,450.38 307.80,446.11 322.03,433.96 322.03,416.38 336.27,436.64 336.27,435.38 350.51,444.34 350.51,422.29 364.75,453.66 364.75,430.36 378.98,442.84 378.98,438.44 393.22,437.15 393.22,398.40 407.46,451.49 407.46,416.68 421.69,430.56 421.69,423.48 435.93,456.39 435.93,446.06 450.17,449.23 450.17,432.77 464.41,462.55 464.41,424.65 478.64,434.31 478.64,425.09 492.88,416.71 492.88,401.28 507.12,436.85 507.12,427.64 521.36,445.10 521.36,431.67 535.59,449.22 535.59,447.55 549.83,460.11 549.83,455.36 564.07,450.65 564.07,441.20 578.31,456.23 578.31,454.60 592.54,460.31 592.54,443.82 606.78,450.82 606.78,450.01 621.02,470.03 621.02,461.32 635.25,466.87 635.25,463.05 649.49,464.98 649.49,461.93 663.73,464.72 663.73,447.36 677.97,467.97 677.97,458.45 692.20,469.30 692.20,465.79 706.44,457.14 706.44,429.24 720.68,469.75 720.68,461.91 734.92,467.90 734.92,456.87 749.15,471.28 749.15,467.20 763.39,471.42 763.39,468.74 777.63,467.58 777.63,466.66 791.86,468.93 791.86,466.43 806.10,468.46 806.10,467.48 820.34,471.42 820.34,463.33 834.58,472.58 834.58,464.16 848.81,469.41 848.81,466.25 863.05,467.82 863.05,464.50 877.29,470.10 877.29,468.86 891.53,472.14 891.53,470.50 905.76,472.03 905.76,466.45 920.00,472.78 920.00,470.95" fill="none" stroke="#d62728" stroke-width="2"/>
<circle cx="80.00" cy="453.67" r="2.5" fill="#d62728"/>
<circle cx="80.00" cy="263.67" r="2.5" fill="#d62728"/>
<circle cx="94.24" cy="464.55" r="2.5" fill="#d62728"/>
<circle cx="94.24" cy="270.75" r="2.5" fill="#d62728"/>
<circle cx="108.47" cy="462.54" r="2.5" fill="#d62728"/>
<circle cx="108.47" cy="319.41" r="2.5" fill="#d62728"/>
<circle cx="122.71" cy="453.60" r="2.5" fill="#d62728"/>
<circle cx="122.71" cy="328.27" r="2.5" fill="#d62728"/>
<circle cx="136.95" cy="436.55" r="2.5" fill="#d62728"/>
<circle cx="136.95" cy="370.44" r="2.5" fill="#d62728"/>
<circle cx="151.19" cy="441.02" r="2.5" fill="#d62728"/>
<circle cx="151.19" cy="388.06" r="2.5" fill="#d62728"/>
<circle cx="165.42" cy="440.33" r="2.5" fill="#d62728"/>
<circle cx="165.42" cy="417.65" r="2.5" fill="#d62728"/>
<circle cx="179.66" cy="464.46" r="2.5" fill="#d62728"/>
<circle cx="179.66" cy="435.47" r="2.5" fill="#d62728"/>
<circle cx="193.90" cy="437.17" r="2.5" fill="#d62728"/>
<circle cx="193.90" cy="430.16" r="2.5" fill="#d62728"/>
<circle cx="208.14" cy="447.39" r="2.5" fill="#d62728"/>
<circle cx="208.14" cy="442.53" r="2.5" fill="#d62728"/>
<circle cx="222.37" cy="434.82" r="2.5" fill="#d62728"/>
<circle cx="222.37" cy="432.98" r="2.5" fill="#d62728"/>
<circle cx="236.61" cy="448.81" r="2.5" fill="#d62728"/>
<circle cx="236.61" cy="437.54" r="2.5" fill="#d62728"/>
<circle cx="250.85" cy="440.23" r="2.5" fill="#d62728"/>
<circle cx="250.85" cy="437.10" r="2.5" fill="#d62728"/>
<circle cx="265.08" cy="447.29" r="2.5" fill="#d62728"/>
<circle cx="265.08" cy="444.81" r="2.5" fill="#d62728"/>
<circle cx="279.32" cy="436.65" r="2.5" fill="#d62728"/>
<circle cx="279.32" cy="434.56" r="2.5" fill="#d62728"/>
<circle cx="293.56" cy="442.55" r="2.5" fill="#d62728"/>
<circle cx="293.56" cy="420.02" r="2.5" fill="#d62728"/>
<circle cx="307.80" cy="450.38" r="2.5" fill="#d62728"/>
<circle cx="307.80" cy="446.11" r="2.5" fill="#d62728"/>
<circle cx="322.03" cy="433.96" r="2.5" fill="#d62728"/>
<circle cx="322.03" cy="416.38" r="2.5" fill="#d62728"/>
<circle cx="336.27" cy="436.64" r="2.5" fill="#d62728"/>
<circle cx="336.27" cy="435.38" r="2.5" fill="#d62728"/>
<circle cx="350.51" cy="444.34" r="2.5" fill="#d62728"/>
<circle cx="350.51" cy="422.29" r="2.5" fill="#d62728"/>
<circle cx="364.75" cy="453.66" r="2.5" fill="#d62728"/>
<circle cx="364.75" cy="430.36" r="2.5" fill="#d62728"/>
<circle cx="378.98" cy="442.84" r="2.5" fill="#d62728"/>
<circle cx="378.98" cy="438.44" r="2.5" fill="#d62728"/>
<circle cx="393.22" cy="437.15" r="2.5" fill="#d62728"/>
<circle cx="393.22" cy="398.40" r="2.5" fill="#d62728"/>
<circle cx="407.46" cy="451.49" r="2.5" fill="#d62728"/>
<circle cx="407.46" cy="416.68" r="2.5" fill="#d62728"/>
<circle cx="421.69" cy="430.56" r="2.5" fill="#d62728"/>
<circle cx="421.69" cy="423.48" r="2.5" fill="#d62728"/>
<circle cx="435.93" cy="456.39" r="2.5" fill="#d62728"/>
<circle cx="435.93" cy="446.06" r="2.5" fill="#d62728"/>
<circle cx="450.17" cy="449.23" r="2.5" fill="#d62728"/>
<circle cx="450.17" cy="432.77" r="2.5" fill="#d62728"/>
<circle cx="464.41" cy="462.55" r="2.5" fill="#d62728"/>
<circle cx="464.41" cy="424.65" r="2.5" fill="#d62728"/>
<circle cx="478.64" cy="434.31" r="2.5" fill="#d62728"/>
<circle cx="478.64" cy="425.09" r="2.5" fill="#d62728"/>
<circle cx="492.88" cy="416.71" r="2.5" fill="#d62728"/>
<circle cx="492.88" cy="401.28" r="2.5" fill="#d62728"/>
<circle cx="507.12" cy="436.85" r="2.5" fill="#d62728"/>
<circle cx="507.12" cy="427.64" r="2.5" fill="#d62728"/>
<circle cx="521.36" cy="445.10" r="2.5" fill="#d62728"/>
<circle cx="521.36" cy="431.67" r="2.5" fill="#d62728"/>
<circle cx="535.59" cy="449.22" r="2.5" fill="#d62728"/>
<circle cx="535.59" cy="447.55" r="2.5" fill="#d62728"/>
<circle cx="549.83" cy="460.11" r="2.5" fill="#d62728"/>
<circle cx="549.83" cy="455.36" r="2.5" fill="#d62728"/>
<circle cx="564.07" cy="450.65" r="2.5" fill="#d62728"/>
<circle cx="564.07" cy="441.20" r="2.5" fill="#d62728"/>
<circle cx="578.31" cy="456.23" r="2.5" fill="#d62728"/>
<circle cx="578.31" cy="454.60" r="2.5" fill="#d62728"/>
<circle cx="592.54" cy="460.31" r="2.5" fill="#d62728"/>
<circle cx="592.54" cy="443.82" r="2.5" fill="#d62728"/>
<circle cx="606.78" cy="450.82" r="2.5" fill="#d62728"/>
<circle cx="606.78" cy="450.01" r="2.5" fill="#d62728"/>
<circle cx="621.02" cy="470.03" r="2.5" fill="#d62728"/>
<circle cx="621.02" cy="461.32" r="2.5" fill="#d62728"/>
<circle cx="635.25" cy="466.87" r="2.5" fill="#d62728"/>
<circle cx="635.25" cy="463.05" r="2.5" fill="#d62728"/>
<circle cx="649.49" cy="464.98" r="2.5" fill="#d62728"/>
<circle cx="649.49" cy="461.93" r="2.5" fill="#d62728"/>
<circle cx="663.73" cy="464.72" r="2.5" fill="#d62728"/>
<circle cx="663.73" cy="447.36" r="2.5" fill="#d62728"/>
<circle cx="677.97" cy="467.97" r="2.5" fill="#d62728"/>
<circle cx="677.97" cy="458.45" r="2.5" fill="#d62728"/>
<circle cx="692.20" cy="469.30" r="2.5" fill="#d62728"/>
<circle cx="692.20" cy="465.79" r="2.5" fill="#d62728"/>
<circle cx="706.44" cy="457.14" r="2.5" fill="#d62728"/>
<circle cx="706.44" cy="429.24" r="2.5" fill="#d62728"/>
<circle cx="720.68" cy="469.75" r="2.5" fill="#d62728"/>
<circle cx="720.68" cy="461.91" r="2.5" fill="#d62728"/>
<circle cx="734.92" cy="467.90" r="2.5" fill="#d62728"/>
<circle cx="734.92" cy="456.87" r="2.5" fill="#d62728"/>
<circle cx="749.15" cy="471.28" r="2.5" fill="#d62728"/>
<circle cx="749.15" cy="467.20" r="2.5" fill="#d62728"/>
<circle cx="763.39" cy="471.42" r="2.5" fill="#d62728"/>
<circle cx="763.39" cy="468.74" r="2.5" fill="#d62728"/>
<circle cx="777.63" cy="467.58" r="2.5" fill="#d62728"/>
<circle cx="777.63" cy="466.66" r="2.5" fill="#d62728"/>
<circle cx="791.86" cy="468.93" r="2.5" fill="#d62728"/>
<circle cx="791.86" cy="466.43" r="2.5" fill="#d62728"/>
<circle cx="806.10" cy="468.46" r="2.5" fill="#d62728"/>
<circle cx="806.10" cy="467.48" r="2.5" fill="#d62728"/>
<circle cx="820.34" cy="471.42" r="2.5" fill="#d62728"/>
<circle cx="820.34" cy="463.33" r="2.5" fill="#d62728"/>
<circle cx="834.58" cy="472.58" r="2.5" fill="#d62728"/>
<circle cx="834.58" cy="464.16" r="2.5" fill="#d62728"/>
<circle cx="848.81" cy="469.41" r="2.5" fill="#d62728"/>
<circle cx="848.81" cy="466.25" r="2.5" fill="#d62728"/>
<circle cx="863.05" cy="467.82" r="2.5" fill="#d62728"/>
<circle cx="863.05" cy="464.50" r="2.5" fill="#d62728"/>
<circle cx="877.29" cy="470.10" r="2.5" fill="#d62728"/>
<circle cx="877.29" cy="468.86" r="2.5" fill="#d62728"/>
<circle cx="891.53" cy="472.14" r="2.5" fill="#d62728"/>
<circle cx="891.53" cy="470.50" r="2.5" fill="#d62728"/>
<circle cx="905.76" cy="472.03" r="2.5" fill="#d62728"/>
<circle cx="905.76" cy="466.45" r="2.5" fill="#d62728"/>
<circle cx="920.00" cy="472.78" r="2.5" fill="#d62728"/>
<circle cx="920.00" cy="470.95" r="2.5" fill="#d62728"/>
<rect x="690" y="120" width="12" height="12" fill="#d62728"/>
<text x="708" y="130" font-family="sans-serif" font-size="12">Semi-Coordinated - QPLF</text>
<text x="80" y="500" font-family="sans-serif" font-size="12">x: 0 to 59; y: 1.424 to 251.241</text>
</svg>
