<svg xmlns="http://www.w3.org/2000/svg" width="960" height="560" viewBox="0 0 960 560">
<rect width="100%" height="100%" fill="white"/>
<text x="80" y="35" font-family="sans-serif" font-size="24">Episode-wise delay for RL algorithms</text>
<line x1="80" y1="480" x2="920" y2="480" stroke="black"/>
<line x1="80" y1="70" x2="80" y2="480" stroke="black"/>
<text x="460.0" y="535" font-family="sans-serif" font-size="14">episode</text>
<text x="15" y="275.0" font-family="sans-serif" font-size="14" transform="rotate(-90 15,275.0)">mean_delay_seconds</text>
<polyline points="80.00,462.32 80.00,436.00 94.24,470.58 94.24,456.34 108.47,470.26 108.47,456.39 122.71,472.47 122.71,455.85 136.95,465.75 136.95,457.36 151.19,470.73 151.19,455.12 165.42,467.44 165.42,455.59 179.66,469.30 179.66,456.09 193.90,468.33 193.90,454.62 208.14,470.73 208.14,456.67 222.37,468.22 222.37,457.65 236.61,467.03 236.61,457.65 250.85,466.58 250.85,456.56 265.08,463.09 265.08,456.03 279.32,462.81 279.32,457.31 293.56,462.59 293.56,454.91 307.80,465.62 307.80,456.43 322.03,467.40 322.03,456.24 336.27,464.72 336.27,455.94 350.51,460.46 350.51,450.70 364.75,462.72 364.75,453.66 378.98,462.45 378.98,456.15 393.22,459.70 393.22,444.88 407.46,459.52 407.46,454.52 421.69,452.64 421.69,452.01 435.93,462.90 435.93,451.53 450.17,461.17 450.17,452.89 464.41,464.09 464.41,454.49 478.64,460.15 478.64,454.29 492.88,454.24 492.88,452.21 507.12,455.21 507.12,450.21 521.36,453.75 521.36,452.19 535.59,457.61 535.59,453.20 549.83,450.18 549.83,449.07 564.07,451.15 564.07,445.76 578.31,450.62 578.31,441.15 592.54,454.26 592.54,449.48 606.78,453.70 606.78,447.24 621.02,451.85 621.02,445.80 635.25,451.25 635.25,451.08 649.49,453.13 649.49,444.66 663.73,452.23 663.73,440.37 677.97,454.79 677.97,448.54 692.20,451.40 692.20,436.99 706.44,451.81 706.44,443.16 720.68,451.34 720.68,443.65 734.92,451.96 734.92,446.15 749.15,452.97 749.15,444.48 763.39,453.21 763.39,445.53 777.63,452.42 777.63,449.09 791.86,452.60 791.86,442.87 806.10,452.99 806.10,437.80 820.34,452.71 820.34,440.09 834.58,452.66 834.58,437.48 848.81,447.77 848.81,446.42 863.05,452.03 863.05,432.11 877.29,453.54 877.29,433.39 891.53,451.79 891.53,442.61 905.76,452.53 905.76,430.19 920.00,448.79 920.00,431.74" fill="none" stroke="#1f77b4" stroke-width="2"/>
<circle cx="80.00" cy="462.32" r="2.5" fill="#1f77b4"/>
<circle cx="80.00" cy="436.00" r="2.5" fill="#1f77b4"/>
<circle cx="94.24" cy="470.58" r="2.5" fill="#1f77b4"/>
<circle cx="94.24" cy="456.34" r="2.5" fill="#1f77b4"/>
<circle cx="108.47" cy="470.26" r="2.5" fill="#1f77b4"/>
<circle cx="108.47" cy="456.39" r="2.5" fill="#1f77b4"/>
<circle cx="122.71" cy="472.47" r="2.5" fill="#1f77b4"/>
<circle cx="122.71" cy="455.85" r="2.5" fill="#1f77b4"/>
<circle cx="136.95" cy="465.75" r="2.5" fill="#1f77b4"/>
<circle cx="136.95" cy="457.36" r="2.5" fill="#1f77b4"/>
<circle cx="151.19" cy="470.73" r="2.5" fill="#1f77b4"/>
<circle cx="151.19" cy="455.12" r="2.5" fill="#1f77b4"/>
<circle cx="165.42" cy="467.44" r="2.5" fill="#1f77b4"/>
<circle cx="165.42" cy="455.59" r="2.5" fill="#1f77b4"/>
<circle cx="179.66" cy="469.30" r="2.5" fill="#1f77b4"/>
<circle cx="179.66" cy="456.09" r="2.5" fill="#1f77b4"/>
<circle cx="193.90" cy="468.33" r="2.5" fill="#1f77b4"/>
<circle cx="193.90" cy="454.62" r="2.5" fill="#1f77b4"/>
<circle cx="208.14" cy="470.73" r="2.5" fill="#1f77b4"/>
<circle cx="208.14" cy="456.67" r="2.5" fill="#1f77b4"/>
<circle cx="222.37" cy="468.22" r="2.5" fill="#1f77b4"/>
<circle cx="222.37" cy="457.65" r="2.5" fill="#1f77b4"/>
<circle cx="236.61" cy="467.03" r="2.5" fill="#1f77b4"/>
<circle cx="236.61" cy="457.65" r="2.5" fill="#1f77b4"/>
<circle cx="250.85" cy="466.58" r="2.5" fill="#1f77b4"/>
<circle cx="250.85" cy="456.56" r="2.5" fill="#1f77b4"/>
<circle cx="265.08" cy="463.09" r="2.5" fill="#1f77b4"/>
<circle cx="265.08" cy="456.03" r="2.5" fill="#1f77b4"/>
<circle cx="279.32" cy="462.81" r="2.5" fill="#1f77b4"/>
<circle cx="279.32" cy="457.31" r="2.5" fill="#1f77b4"/>
<circle cx="293.56" cy="462.59" r="2.5" fill="#1f77b4"/>
<circle cx="293.56" cy="454.91" r="2.5" fill="#1f77b4"/>
<circle cx="307.80" cy="465.62" r="2.5" fill="#1f77b4"/>
<circle cx="307.80" cy="456.43" r="2.5" fill="#1f77b4"/>
<circle cx="322.03" cy="467.40" r="2.5" fill="#1f77b4"/>
<circle cx="322.03" cy="456.24" r="2.5" fill="#1f77b4"/>
<circle cx="336.27" cy="464.72" r="2.5" fill="#1f77b4"/>
<circle cx="336.27" cy="455.94" r="2.5" fill="#1f77b4"/>
<circle cx="350.51" cy="460.46" r="2.5" fill="#1f77b4"/>
<circle cx="350.51" cy="450.70" r="2.5" fill="#1f77b4"/>
<circle cx="364.75" cy="462.72" r="2.5" fill="#1f77b4"/>
<circle cx="364.75" cy="453.66" r="2.5" fill="#1f77b4"/>
<circle cx="378.98" cy="462.45" r="2.5" fill="#1f77b4"/>
<circle cx="378.98" cy="456.15" r="2.5" fill="#1f77b4"/>
<circle cx="393.22" cy="459.70" r="2.5" fill="#1f77b4"/>
<circle cx="393.22" cy="444.88" r="2.5" fill="#1f77b4"/>
<circle cx="407.46" cy="459.52" r="2.5" fill="#1f77b4"/>
<circle cx="407.46" cy="454.52" r="2.5" fill="#1f77b4"/>
<circle cx="421.69" cy="452.64" r="2.5" fill="#1f77b4"/>
<circle cx="421.69" cy="452.01" r="2.5" fill="#1f77b4"/>
<circle cx="435.93" cy="462.90" r="2.5" fill="#1f77b4"/>
<circle cx="435.93" cy="451.53" r="2.5" fill="#1f77b4"/>
<circle cx="450.17" cy="461.17" r="2.5" fill="#1f77b4"/>
<circle cx="450.17" cy="452.89" r="2.5" fill="#1f77b4"/>
<circle cx="464.41" cy="464.09" r="2.5" fill="#1f77b4"/>
<circle cx="464.41" cy="454.49" r="2.5" fill="#1f77b4"/>
<circle cx="478.64" cy="460.15" r="2.5" fill="#1f77b4"/>
<circle cx="478.64" cy="454.29" r="2.5" fill="#1f77b4"/>
<circle cx="492.88" cy="454.24" r="2.5" fill="#1f77b4"/>
<circle cx="492.88" cy="452.21" r="2.5" fill="#1f77b4"/>
<circle cx="507.12" cy="455.21" r="2.5" fill="#1f77b4"/>
<circle cx="507.12" cy="450.21" r="2.5" fill="#1f77b4"/>
<circle cx="521.36" cy="453.75" r="2.5" fill="#1f77b4"/>
<circle cx="521.36" cy="452.19" r="2.5" fill="#1f77b4"/>
<circle cx="535.59" cy="457.61" r="2.5" fill="#1f77b4"/>
<circle cx="535.59" cy="453.20" r="2.5" fill="#1f77b4"/>
<circle cx="549.83" cy="450.18" r="2.5" fill="#1f77b4"/>
<circle cx="549.83" cy="449.07" r="2.5" fill="#1f77b4"/>
<circle cx="564.07" cy="451.15" r="2.5" fill="#1f77b4"/>
<circle cx="564.07" cy="445.76" r="2.5" fill="#1f77b4"/>
<circle cx="578.31" cy="450.62" r="2.5" fill="#1f77b4"/>
<circle cx="578.31" cy="441.15" r="2.5" fill="#1f77b4"/>
<circle cx="592.54" cy="454.26" r="2.5" fill="#1f77b4"/>
<circle cx="592.54" cy="449.48" r="2.5" fill="#1f77b4"/>
<circle cx="606.78" cy="453.70" r="2.5" fill="#1f77b4"/>
<circle cx="606.78" cy="447.24" r="2.5" fill="#1f77b4"/>
<circle cx="621.02" cy="451.85" r="2.5" fill="#1f77b4"/>
<circle cx="621.02" cy="445.80" r="2.5" fill="#1f77b4"/>
<circle cx="635.25" cy="451.25" r="2.5" fill="#1f77b4"/>
<circle cx="635.25" cy="451.08" r="2.5" fill="#1f77b4"/>
<circle cx="649.49" cy="453.13" r="2.5" fill="#1f77b4"/>
<circle cx="649.49" cy="444.66" r="2.5" fill="#1f77b4"/>
<circle cx="663.73" cy="452.23" r="2.5" fill="#1f77b4"/>
<circle cx="663.73" cy="440.37" r="2.5" fill="#1f77b4"/>
<circle cx="677.97" cy="454.79" r="2.5" fill="#1f77b4"/>
<circle cx="677.97" cy="448.54" r="2.5" fill="#1f77b4"/>
<circle cx="692.20" cy="451.40" r="2.5" fill="#1f77b4"/>
<circle cx="692.20" cy="436.99" r="2.5" fill="#1f77b4"/>
<circle cx="706.44" cy="451.81" r="2.5" fill="#1f77b4"/>
<circle cx="706.44" cy="443.16" r="2.5" fill="#1f77b4"/>
<circle cx="720.68" cy="451.34" r="2.5" fill="#1f77b4"/>
<circle cx="720.68" cy="443.65" r="2.5" fill="#1f77b4"/>
<circle cx="734.92" cy="451.96" r="2.5" fill="#1f77b4"/>
<circle cx="734.92" cy="446.15" r="2.5" fill="#1f77b4"/>
<circle cx="749.15" cy="452.97" r="2.5" fill="#1f77b4"/>
<circle cx="749.15" cy="444.48" r="2.5" fill="#1f77b4"/>
<circle cx="763.39" cy="453.21" r="2.5" fill="#1f77b4"/>
<circle cx="763.39" cy="445.53" r="2.5" fill="#1f77b4"/>
<circle cx="777.63" cy="452.42" r="2.5" fill="#1f77b4"/>
<circle cx="777.63" cy="449.09" r="2.5" fill="#1f77b4"/>
<circle cx="791.86" cy="452.60" r="2.5" fill="#1f77b4"/>
<circle cx="791.86" cy="442.87" r="2.5" fill="#1f77b4"/>
<circle cx="806.10" cy="452.99" r="2.5" fill="#1f77b4"/>
<circle cx="806.10" cy="437.80" r="2.5" fill="#1f77b4"/>
<circle cx="820.34" cy="452.71" r="2.5" fill="#1f77b4"/>
<circle cx="820.34" cy="440.09" r="2.5" fill="#1f77b4"/>
<circle cx="834.58" cy="452.66" r="2.5" fill="#1f77b4"/>
<circle cx="834.58" cy="437.48" r="2.5" fill="#1f77b4"/>
<circle cx="848.81" cy="447.77" r="2.5" fill="#1f77b4"/>
<circle cx="848.81" cy="446.42" r="2.5" fill="#1f77b4"/>
<circle cx="863.05" cy="452.03" r="2.5" fill="#1f77b4"/>
<circle cx="863.05" cy="432.11" r="2.5" fill="#1f77b4"/>
<circle cx="877.29" cy="453.54" r="2.5" fill="#1f77b4"/>
<circle cx="877.29" cy="433.39" r="2.5" fill="#1f77b4"/>
<circle cx="891.53" cy="451.79" r="2.5" fill="#1f77b4"/>
<circle cx="891.53" cy="442.61" r="2.5" fill="#1f77b4"/>
<circle cx="905.76" cy="452.53" r="2.5" fill="#1f77b4"/>
<circle cx="905.76" cy="430.19" r="2.5" fill="#1f77b4"/>
<circle cx="920.00" cy="448.79" r="2.5" fill="#1f77b4"/>
<circle cx="920.00" cy="431.74" r="2.5" fill="#1f77b4"/>
<rect x="690" y="60" width="12" height="12" fill="#1f77b4"/>
<text x="708" y="70" font-family="sans-serif" font-size="12">Independent Learner - Full RL</text>
<polyline points="80.00,434.57 80.00,70.00 94.24,465.48 94.24,81.66 108.47,415.34 108.47,394.10 122.71,437.60 122.71,294.83 136.95,445.41 136.95,311.82 151.19,425.36 151.19,424.59 165.42,426.48 165.42,376.17 179.66,431.21 179.66,425.38 193.90,423.20 193.90,397.66 208.14,441.87 208.14,408.39 222.37,466.54 222.37,403.69 236.61,443.84 236.61,414.46 250.85,458.97 250.85,431.02 265.08,460.77 265.08,403.67 279.32,445.70 279.32,409.48 293.56,439.36 293.56,381.22 307.80,449.92 307.80,403.29 322.03,438.35 322.03,419.32 336.27,465.02 336.27,409.02 350.51,452.29 350.51,368.15 364.75,451.72 364.75,387.79 378.98,446.75 378.98,418.47 393.22,461.39 393.22,335.48 407.46,451.21 407.46,309.11 421.69,459.97 421.69,380.39 435.93,462.41 435.93,432.02 450.17,445.76 450.17,389.65 464.41,463.25 464.41,424.71 478.64,457.44 478.64,400.32 492.88,445.72 492.88,407.80 507.12,461.61 507.12,420.94 521.36,448.27 521.36,350.50 535.59,456.26 535.59,371.38 549.83,436.59 549.83,403.33 564.07,447.83 564.07,420.96 578.31,458.02 578.31,442.81 592.54,460.89 592.54,394.83 606.78,460.44 606.78,375.52 621.02,440.93 621.02,430.54 635.25,462.67 635.25,309.15 649.49,439.93 649.49,432.28 663.73,436.35 663.73,397.81 677.97,468.94 677.97,370.12 692.20,444.73 692.20,412.47 706.44,434.84 706.44,380.47 720.68,463.46 720.68,431.88 734.92,450.50 734.92,321.62 749.15,451.93 749.15,298.07 763.39,450.79 763.39,365.07 777.63,465.23 777.63,405.09 791.86,452.36 791.86,416.12 806.10,457.66 806.10,256.78 820.34,460.66 820.34,426.76 834.58,450.86 834.58,384.29 848.81,473.20 848.81,406.37 863.05,473.08 863.05,438.63 877.29,471.91 877.29,416.18 891.53,466.59 891.53,461.11 905.76,463.35 905.76,441.19 920.00,446.29 920.00,438.12" fill="none" stroke="#ff7f0e" stroke-width="2"/>
<circle cx="80.00" cy="434.57" r="2.5" fill="#ff7f0e"/>
<circle cx="80.00" cy="70.00" r="2.5" fill="#ff7f0e"/>
<circle cx="94.24" cy="465.48" r="2.5" fill="#ff7f0e"/>
<circle cx="94.24" cy="81.66" r="2.5" fill="#ff7f0e"/>
<circle cx="108.47" cy="415.34" r="2.5" fill="#ff7f0e"/>
<circle cx="108.47" cy="394.10" r="2.5" fill="#ff7f0e"/>
<circle cx="122.71" cy="437.60" r="2.5" fill="#ff7f0e"/>
<circle cx="122.71" cy="294.83" r="2.5" fill="#ff7f0e"/>
<circle cx="136.95" cy="445.41" r="2.5" fill="#ff7f0e"/>
<circle cx="136.95" cy="311.82" r="2.5" fill="#ff7f0e"/>
<circle cx="151.19" cy="425.36" r="2.5" fill="#ff7f0e"/>
<circle cx="151.19" cy="424.59" r="2.5" fill="#ff7f0e"/>
<circle cx="165.42" cy="426.48" r="2.5" fill="#ff7f0e"/>
<circle cx="165.42" cy="376.17" r="2.5" fill="#ff7f0e"/>
<circle cx="179.66" cy="431.21" r="2.5" fill="#ff7f0e"/>
<circle cx="179.66" cy="425.38" r="2.5" fill="#ff7f0e"/>
<circle cx="193.90" cy="423.20" r="2.5" fill="#ff7f0e"/>
<circle cx="193.90" cy="397.66" r="2.5" fill="#ff7f0e"/>
<circle cx="208.14" cy="441.87" r="2.5" fill="#ff7f0e"/>
<circle cx="208.14" cy="408.39" r="2.5" fill="#ff7f0e"/>
<circle cx="222.37" cy="466.54" r="2.5" fill="#ff7f0e"/>
<circle cx="222.37" cy="403.69" r="2.5" fill="#ff7f0e"/>
<circle cx="236.61" cy="443.84" r="2.5" fill="#ff7f0e"/>
<circle cx="236.61" cy="414.46" r="2.5" fill="#ff7f0e"/>
<circle cx="250.85" cy="458.97" r="2.5" fill="#ff7f0e"/>
<circle cx="250.85" cy="431.02" r="2.5" fill="#ff7f0e"/>
<circle cx="265.08" cy="460.77" r="2.5" fill="#ff7f0e"/>
<circle cx="265.08" cy="403.67" r="2.5" fill="#ff7f0e"/>
<circle cx="279.32" cy="445.70" r="2.5" fill="#ff7f0e"/>
<circle cx="279.32" cy="409.48" r="2.5" fill="#ff7f0e"/>
<circle cx="293.56" cy="439.36" r="2.5" fill="#ff7f0e"/>
<circle cx="293.56" cy="381.22" r="2.5" fill="#ff7f0e"/>
<circle cx="307.80" cy="449.92" r="2.5" fill="#ff7f0e"/>
<circle cx="307.80" cy="403.29" r="2.5" fill="#ff7f0e"/>
<circle cx="322.03" cy="438.35" r="2.5" fill="#ff7f0e"/>
<circle cx="322.03" cy="419.32" r="2.5" fill="#ff7f0e"/>
<circle cx="336.27" cy="465.02" r="2.5" fill="#ff7f0e"/>
<circle cx="336.27" cy="409.02" r="2.5" fill="#ff7f0e"/>
<circle cx="350.51" cy="452.29" r="2.5" fill="#ff7f0e"/>
<circle cx="350.51" cy="368.15" r="2.5" fill="#ff7f0e"/>
<circle cx="364.75" cy="451.72" r="2.5" fill="#ff7f0e"/>
<circle cx="364.75" cy="387.79" r="2.5" fill="#ff7f0e"/>
<circle cx="378.98" cy="446.75" r="2.5" fill="#ff7f0e"/>
<circle cx="378.98" cy="418.47" r="2.5" fill="#ff7f0e"/>
<circle cx="393.22" cy="461.39" r="2.5" fill="#ff7f0e"/>
<circle cx="393.22" cy="335.48" r="2.5" fill="#ff7f0e"/>
<circle cx="407.46" cy="451.21" r="2.5" fill="#ff7f0e"/>
<circle cx="407.46" cy="309.11" r="2.5" fill="#ff7f0e"/>
<circle cx="421.69" cy="459.97" r="2.5" fill="#ff7f0e"/>
<circle cx="421.69" cy="380.39" r="2.5" fill="#ff7f0e"/>
<circle cx="435.93" cy="462.41" r="2.5" fill="#ff7f0e"/>
<circle cx="435.93" cy="432.02" r="2.5" fill="#ff7f0e"/>
<circle cx="450.17" cy="445.76" r="2.5" fill="#ff7f0e"/>
<circle cx="450.17" cy="389.65" r="2.5" fill="#ff7f0e"/>
<circle cx="464.41" cy="463.25" r="2.5" fill="#ff7f0e"/>
<circle cx="464.41" cy="424.71" r="2.5" fill="#ff7f0e"/>
<circle cx="478.64" cy="457.44" r="2.5" fill="#ff7f0e"/>
<circle cx="478.64" cy="400.32" r="2.5" fill="#ff7f0e"/>
<circle cx="492.88" cy="445.72" r="2.5" fill="#ff7f0e"/>
<circle cx="492.88" cy="407.80" r="2.5" fill="#ff7f0e"/>
<circle cx="507.12" cy="461.61" r="2.5" fill="#ff7f0e"/>
<circle cx="507.12" cy="420.94" r="2.5" fill="#ff7f0e"/>
<circle cx="521.36" cy="448.27" r="2.5" fill="#ff7f0e"/>
<circle cx="521.36" cy="350.50" r="2.5" fill="#ff7f0e"/>
<circle cx="535.59" cy="456.26" r="2.5" fill="#ff7f0e"/>
<circle cx="535.59" cy="371.38" r="2.5" fill="#ff7f0e"/>
<circle cx="549.83" cy="436.59" r="2.5" fill="#ff7f0e"/>
<circle cx="549.83" cy="403.33" r="2.5" fill="#ff7f0e"/>
<circle cx="564.07" cy="447.83" r="2.5" fill="#ff7f0e"/>
<circle cx="564.07" cy="420.96" r="2.5" fill="#ff7f0e"/>
<circle cx="578.31" cy="458.02" r="2.5" fill="#ff7f0e"/>
<circle cx="578.31" cy="442.81" r="2.5" fill="#ff7f0e"/>
<circle cx="592.54" cy="460.89" r="2.5" fill="#ff7f0e"/>
<circle cx="592.54" cy="394.83" r="2.5" fill="#ff7f0e"/>
<circle cx="606.78" cy="460.44" r="2.5" fill="#ff7f0e"/>
<circle cx="606.78" cy="375.52" r="2.5" fill="#ff7f0e"/>
<circle cx="621.02" cy="440.93" r="2.5" fill="#ff7f0e"/>
<circle cx="621.02" cy="430.54" r="2.5" fill="#ff7f0e"/>
<circle cx="635.25" cy="462.67" r="2.5" fill="#ff7f0e"/>
<circle cx="635.25" cy="309.15" r="2.5" fill="#ff7f0e"/>
<circle cx="649.49" cy="439.93" r="2.5" fill="#ff7f0e"/>
<circle cx="649.49" cy="432.28" r="2.5" fill="#ff7f0e"/>
<circle cx="663.73" cy="436.35" r="2.5" fill="#ff7f0e"/>
<circle cx="663.73" cy="397.81" r="2.5" fill="#ff7f0e"/>
<circle cx="677.97" cy="468.94" r="2.5" fill="#ff7f0e"/>
<circle cx="677.97" cy="370.12" r="2.5" fill="#ff7f0e"/>
<circle cx="692.20" cy="444.73" r="2.5" fill="#ff7f0e"/>
<circle cx="692.20" cy="412.47" r="2.5" fill="#ff7f0e"/>
<circle cx="706.44" cy="434.84" r="2.5" fill="#ff7f0e"/>
<circle cx="706.44" cy="380.47" r="2.5" fill="#ff7f0e"/>
<circle cx="720.68" cy="463.46" r="2.5" fill="#ff7f0e"/>
<circle cx="720.68" cy="431.88" r="2.5" fill="#ff7f0e"/>
<circle cx="734.92" cy="450.50" r="2.5" fill="#ff7f0e"/>
<circle cx="734.92" cy="321.62" r="2.5" fill="#ff7f0e"/>
<circle cx="749.15" cy="451.93" r="2.5" fill="#ff7f0e"/>
<circle cx="749.15" cy="298.07" r="2.5" fill="#ff7f0e"/>
<circle cx="763.39" cy="450.79" r="2.5" fill="#ff7f0e"/>
<circle cx="763.39" cy="365.07" r="2.5" fill="#ff7f0e"/>
<circle cx="777.63" cy="465.23" r="2.5" fill="#ff7f0e"/>
<circle cx="777.63" cy="405.09" r="2.5" fill="#ff7f0e"/>
<circle cx="791.86" cy="452.36" r="2.5" fill="#ff7f0e"/>
<circle cx="791.86" cy="416.12" r="2.5" fill="#ff7f0e"/>
<circle cx="806.10" cy="457.66" r="2.5" fill="#ff7f0e"/>
<circle cx="806.10" cy="256.78" r="2.5" fill="#ff7f0e"/>
<circle cx="820.34" cy="460.66" r="2.5" fill="#ff7f0e"/>
<circle cx="820.34" cy="426.76" r="2.5" fill="#ff7f0e"/>
<circle cx="834.58" cy="450.86" r="2.5" fill="#ff7f0e"/>
<circle cx="834.58" cy="384.29" r="2.5" fill="#ff7f0e"/>
<circle cx="848.81" cy="473.20" r="2.5" fill="#ff7f0e"/>
<circle cx="848.81" cy="406.37" r="2.5" fill="#ff7f0e"/>
<circle cx="863.05" cy="473.08" r="2.5" fill="#ff7f0e"/>
<circle cx="863.05" cy="438.63" r="2.5" fill="#ff7f0e"/>
<circle cx="877.29" cy="471.91" r="2.5" fill="#ff7f0e"/>
<circle cx="877.29" cy="416.18" r="2.5" fill="#ff7f0e"/>
<circle cx="891.53" cy="466.59" r="2.5" fill="#ff7f0e"/>
<circle cx="891.53" cy="461.11" r="2.5" fill="#ff7f0e"/>
<circle cx="905.76" cy="463.35" r="2.5" fill="#ff7f0e"/>
<circle cx="905.76" cy="441.19" r="2.5" fill="#ff7f0e"/>
<circle cx="920.00" cy="446.29" r="2.5" fill="#ff7f0e"/>
<circle cx="920.00" cy="438.12" r="2.5" fill="#ff7f0e"/>
<rect x="690" y="80" width="12" height="12" fill="#ff7f0e"/>
<text x="708" y="90" font-family="sans-serif" font-size="12">Independent Learner - QPLF</text>
<polyline points="80.00,442.50 80.00,411.05 94.24,462.81 94.24,83.98 108.47,472.46 108.47,371.65 122.71,471.07 122.71,336.71 136.95,470.68 136.95,330.93 151.19,469.63 151.19,383.02 165.42,469.03 165.42,379.56 179.66,471.52 179.66,304.79 193.90,468.23 193.90,357.94 208.14,470.85 208.14,268.39 222.37,472.57 222.37,393.16 236.61,470.04 236.61,270.04 250.85,469.27 250.85,409.71 265.08,475.47 265.08,470.01 279.32,477.15 279.32,463.87 293.56,476.15 293.56,465.45 307.80,470.38 307.80,464.15 322.03,466.95 322.03,306.52 336.27,476.35 336.27,464.90 350.51,475.03 350.51,468.07 364.75,477.07 364.75,466.35 378.98,467.06 378.98,378.28 393.22,468.13 393.22,405.35 407.46,472.48 407.46,465.14 421.69,475.64 421.69,467.04 435.93,470.53 435.93,469.85 450.17,474.98 450.17,463.69 464.41,477.44 464.41,465.51 478.64,476.40 478.64,462.97 492.88,469.00 492.88,368.63 507.12,470.79 507.12,459.71 521.36,474.53 521.36,332.30 535.59,474.55 535.59,464.06 549.83,475.59 549.83,467.56 564.07,474.57 564.07,330.57 578.31,476.83 578.31,458.76 592.54,473.20 592.54,468.28 606.78,472.05 606.78,434.64 621.02,456.25 621.02,441.98 635.25,457.72 635.25,242.23 649.49,475.26 649.49,474.09 663.73,477.34 663.73,462.10 677.97,474.55 677.97,463.09 692.20,476.93 692.20,456.12 706.44,476.58 706.44,451.00 720.68,472.77 720.68,472.28 734.92,476.53 734.92,461.99 749.15,479.68 749.15,477.01 763.39,479.87 763.39,444.24 777.63,474.74 777.63,462.91 791.86,473.48 791.86,468.73 806.10,477.02 806.10,403.31 820.34,477.36 820.34,461.14 834.58,466.00 834.58,414.90 848.81,476.11 848.81,473.12 863.05,480.00 863.05,476.77 877.29,478.02 877.29,476.39 891.53,471.63 891.53,420.68 905.76,479.91 905.76,477.12 920.00,477.61 920.00,474.69" fill="none" stroke="#2ca02c" stroke-width="2"/>
<circle cx="80.00" cy="442.50" r="2.5" fill="#2ca02c"/>
<circle cx="80.00" cy="411.05" r="2.5" fill="#2ca02c"/>
<circle cx="94.24" cy="462.81" r="2.5" fill="#2ca02c"/>
<circle cx="94.24" cy="83.98" r="2.5" fill="#2ca02c"/>
<circle cx="108.47" cy="472.46" r="2.5" fill="#2ca02c"/>
<circle cx="108.47" cy="371.65" r="2.5" fill="#2ca02c"/>
<circle cx="122.71" cy="471.07" r="2.5" fill="#2ca02c"/>
<circle cx="122.71" cy="336.71" r="2.5" fill="#2ca02c"/>
<circle cx="136.95" cy="470.68" r="2.5" fill="#2ca02c"/>
<circle cx="136.95" cy="330.93" r="2.5" fill="#2ca02c"/>
<circle cx="151.19" cy="469.63" r="2.5" fill="#2ca02c"/>
<circle cx="151.19" cy="383.02" r="2.5" fill="#2ca02c"/>
<circle cx="165.42" cy="469.03" r="2.5" fill="#2ca02c"/>
<circle cx="165.42" cy="379.56" r="2.5" fill="#2ca02c"/>
<circle cx="179.66" cy="471.52" r="2.5" fill="#2ca02c"/>
<circle cx="179.66" cy="304.79" r="2.5" fill="#2ca02c"/>
<circle cx="193.90" cy="468.23" r="2.5" fill="#2ca02c"/>
<circle cx="193.90" cy="357.94" r="2.5" fill="#2ca02c"/>
<circle cx="208.14" cy="470.85" r="2.5" fill="#2ca02c"/>
<circle cx="208.14" cy="268.39" r="2.5" fill="#2ca02c"/>
<circle cx="222.37" cy="472.57" r="2.5" fill="#2ca02c"/>
<circle cx="222.37" cy="393.16" r="2.5" fill="#2ca02c"/>
<circle cx="236.61" cy="470.04" r="2.5" fill="#2ca02c"/>
<circle cx="236.61" cy="270.04" r="2.5" fill="#2ca02c"/>
<circle cx="250.85" cy="469.27" r="2.5" fill="#2ca02c"/>
<circle cx="250.85" cy="409.71" r="2.5" fill="#2ca02c"/>
<circle cx="265.08" cy="475.47" r="2.5" fill="#2ca02c"/>
<circle cx="265.08" cy="470.01" r="2.5" fill="#2ca02c"/>
<circle cx="279.32" cy="477.15" r="2.5" fill="#2ca02c"/>
<circle cx="279.32" cy="463.87" r="2.5" fill="#2ca02c"/>
<circle cx="293.56" cy="476.15" r="2.5" fill="#2ca02c"/>
<circle cx="293.56" cy="465.45" r="2.5" fill="#2ca02c"/>
<circle cx="307.80" cy="470.38" r="2.5" fill="#2ca02c"/>
<circle cx="307.80" cy="464.15" r="2.5" fill="#2ca02c"/>
<circle cx="322.03" cy="466.95" r="2.5" fill="#2ca02c"/>
<circle cx="322.03" cy="306.52" r="2.5" fill="#2ca02c"/>
<circle cx="336.27" cy="476.35" r="2.5" fill="#2ca02c"/>
<circle cx="336.27" cy="464.90" r="2.5" fill="#2ca02c"/>
<circle cx="350.51" cy="475.03" r="2.5" fill="#2ca02c"/>
<circle cx="350.51" cy="468.07" r="2.5" fill="#2ca02c"/>
<circle cx="364.75" cy="477.07" r="2.5" fill="#2ca02c"/>
<circle cx="364.75" cy="466.35" r="2.5" fill="#2ca02c"/>
<circle cx="378.98" cy="467.06" r="2.5" fill="#2ca02c"/>
<circle cx="378.98" cy="378.28" r="2.5" fill="#2ca02c"/>
<circle cx="393.22" cy="468.13" r="2.5" fill="#2ca02c"/>
<circle cx="393.22" cy="405.35" r="2.5" fill="#2ca02c"/>
<circle cx="407.46" cy="472.48" r="2.5" fill="#2ca02c"/>
<circle cx="407.46" cy="465.14" r="2.5" fill="#2ca02c"/>
<circle cx="421.69" cy="475.64" r="2.5" fill="#2ca02c"/>
<circle cx="421.69" cy="467.04" r="2.5" fill="#2ca02c"/>
<circle cx="435.93" cy="470.53" r="2.5" fill="#2ca02c"/>
<circle cx="435.93" cy="469.85" r="2.5" fill="#2ca02c"/>
<circle cx="450.17" cy="474.98" r="2.5" fill="#2ca02c"/>
<circle cx="450.17" cy="463.69" r="2.5" fill="#2ca02c"/>
<circle cx="464.41" cy="477.44" r="2.5" fill="#2ca02c"/>
<circle cx="464.41" cy="465.51" r="2.5" fill="#2ca02c"/>
<circle cx="478.64" cy="476.40" r="2.5" fill="#2ca02c"/>
<circle cx="478.64" cy="462.97" r="2.5" fill="#2ca02c"/>
<circle cx="492.88" cy="469.00" r="2.5" fill="#2ca02c"/>
<circle cx="492.88" cy="368.63" r="2.5" fill="#2ca02c"/>
<circle cx="507.12" cy="470.79" r="2.5" fill="#2ca02c"/>
<circle cx="507.12" cy="459.71" r="2.5" fill="#2ca02c"/>
<circle cx="521.36" cy="474.53" r="2.5" fill="#2ca02c"/>
<circle cx="521.36" cy="332.30" r="2.5" fill="#2ca02c"/>
<circle cx="535.59" cy="474.55" r="2.5" fill="#2ca02c"/>
<circle cx="535.59" cy="464.06" r="2.5" fill="#2ca02c"/>
<circle cx="549.83" cy="475.59" r="2.5" fill="#2ca02c"/>
<circle cx="549.83" cy="467.56" r="2.5" fill="#2ca02c"/>
<circle cx="564.07" cy="474.57" r="2.5" fill="#2ca02c"/>
<circle cx="564.07" cy="330.57" r="2.5" fill="#2ca02c"/>
<circle cx="578.31" cy="476.83" r="2.5" fill="#2ca02c"/>
<circle cx="578.31" cy="458.76" r="2.5" fill="#2ca02c"/>
<circle cx="592.54" cy="473.20" r="2.5" fill="#2ca02c"/>
<circle cx="592.54" cy="468.28" r="2.5" fill="#2ca02c"/>
<circle cx="606.78" cy="472.05" r="2.5" fill="#2ca02c"/>
<circle cx="606.78" cy="434.64" r="2.5" fill="#2ca02c"/>
<circle cx="621.02" cy="456.25" r="2.5" fill="#2ca02c"/>
<circle cx="621.02" cy="441.98" r="2.5" fill="#2ca02c"/>
<circle cx="635.25" cy="457.72" r="2.5" fill="#2ca02c"/>
<circle cx="635.25" cy="242.23" r="2.5" fill="#2ca02c"/>
<circle cx="649.49" cy="475.26" r="2.5" fill="#2ca02c"/>
<circle cx="649.49" cy="474.09" r="2.5" fill="#2ca02c"/>
<circle cx="663.73" cy="477.34" r="2.5" fill="#2ca02c"/>
<circle cx="663.73" cy="462.10" r="2.5" fill="#2ca02c"/>
<circle cx="677.97" cy="474.55" r="2.5" fill="#2ca02c"/>
<circle cx="677.97" cy="463.09" r="2.5" fill="#2ca02c"/>
<circle cx="692.20" cy="476.93" r="2.5" fill="#2ca02c"/>
<circle cx="692.20" cy="456.12" r="2.5" fill="#2ca02c"/>
<circle cx="706.44" cy="476.58" r="2.5" fill="#2ca02c"/>
<circle cx="706.44" cy="451.00" r="2.5" fill="#2ca02c"/>
<circle cx="720.68" cy="472.77" r="2.5" fill="#2ca02c"/>
<circle cx="720.68" cy="472.28" r="2.5" fill="#2ca02c"/>
<circle cx="734.92" cy="476.53" r="2.5" fill="#2ca02c"/>
<circle cx="734.92" cy="461.99" r="2.5" fill="#2ca02c"/>
<circle cx="749.15" cy="479.68" r="2.5" fill="#2ca02c"/>
<circle cx="749.15" cy="477.01" r="2.5" fill="#2ca02c"/>
<circle cx="763.39" cy="479.87" r="2.5" fill="#2ca02c"/>
<circle cx="763.39" cy="444.24" r="2.5" fill="#2ca02c"/>
<circle cx="777.63" cy="474.74" r="2.5" fill="#2ca02c"/>
<circle cx="777.63" cy="462.91" r="2.5" fill="#2ca02c"/>
<circle cx="791.86" cy="473.48" r="2.5" fill="#2ca02c"/>
<circle cx="791.86" cy="468.73" r="2.5" fill="#2ca02c"/>
<circle cx="806.10" cy="477.02" r="2.5" fill="#2ca02c"/>
<circle cx="806.10" cy="403.31" r="2.5" fill="#2ca02c"/>
<circle cx="820.34" cy="477.36" r="2.5" fill="#2ca02c"/>
<circle cx="820.34" cy="461.14" r="2.5" fill="#2ca02c"/>
<circle cx="834.58" cy="466.00" r="2.5" fill="#2ca02c"/>
<circle cx="834.58" cy="414.90" r="2.5" fill="#2ca02c"/>
<circle cx="848.81" cy="476.11" r="2.5" fill="#2ca02c"/>
<circle cx="848.81" cy="473.12" r="2.5" fill="#2ca02c"/>
<circle cx="863.05" cy="480.00" r="2.5" fill="#2ca02c"/>
<circle cx="863.05" cy="476.77" r="2.5" fill="#2ca02c"/>
<circle cx="877.29" cy="478.02" r="2.5" fill="#2ca02c"/>
<circle cx="877.29" cy="476.39" r="2.5" fill="#2ca02c"/>
<circle cx="891.53" cy="471.63" r="2.5" fill="#2ca02c"/>
<circle cx="891.53" cy="420.68" r="2.5" fill="#2ca02c"/>
<circle cx="905.76" cy="479.91" r="2.5" fill="#2ca02c"/>
<circle cx="905.76" cy="477.12" r="2.5" fill="#2ca02c"/>
<circle cx="920.00" cy="477.61" r="2.5" fill="#2ca02c"/>
<circle cx="920.00" cy="474.69" r="2.5" fill="#2ca02c"/>
<rect x="690" y="100" width="12" height="12" fill="#2ca02c"/>
<text x="708" y="110" font-family="sans-serif" font-size="12">Semi-Coordinated - Full RL</text>
<polyline points="80.00,431.26 80.00,95.19 94.24,450.52 94.24,107.72 108.47,446.96 108.47,193.80 122.71,431.14 122.71,209.47 136.95,400.98 136.95,284.05 151.19,408.89 151.19,315.21 165.42,407.67 165.42,367.56 179.66,450.35 179.66,399.07 193.90,402.08 193.90,389.68 208.14,420.16 208.14,411.57 222.37,397.93 222.37,394.67 236.61,422.67 236.61,402.74 250.85,407.49 250.85,401.96 265.08,419.98 265.08,415.60 279.32,401.16 279.32,397.46 293.56,411.61 293.56,371.75 307.80,425.44 307.80,417.89 322.03,396.41 322.03,365.31 336.27,401.14 336.27,398.91 350.51,414.76 350.51,375.76 364.75,431.25 364.75,390.03 378.98,412.11 378.98,404.33 393.22,402.05 393.22,333.50 407.46,427.41 407.46,365.84 421.69,390.38 421.69,377.86 435.93,436.08 435.93,417.80 450.17,423.41 450.17,394.31 464.41,446.97 464.41,379.94 478.64,397.02 478.64,380.72 492.88,365.90 492.88,338.59 507.12,401.51 507.12,385.22 521.36,416.11 521.36,392.36 535.59,423.40 535.59,420.44 549.83,442.65 549.83,434.26 564.07,425.92 564.07,409.21 578.31,435.79 578.31,432.92 592.54,443.01 592.54,413.84 606.78,426.22 606.78,424.80 621.02,460.21 621.02,444.80 635.25,454.61 635.25,447.86 649.49,451.28 649.49,445.88 663.73,450.82 663.73,420.11 677.97,456.56 677.97,439.72 692.20,458.91 692.20,452.70 706.44,437.41 706.44,388.06 720.68,459.70 720.68,445.84 734.92,456.43 734.92,436.92 749.15,462.41 749.15,455.20 763.39,462.67 763.39,457.93 777.63,455.87 777.63,454.24 791.86,458.25 791.86,453.83 806.10,457.43 806.10,455.70 820.34,462.66 820.34,448.35 834.58,464.71 834.58,449.82 848.81,459.11 848.81,453.52 863.05,456.29 863.05,450.43 877.29,460.33 877.29,458.14 891.53,463.94 891.53,461.03 905.76,463.75 905.76,453.87 920.00,465.07 920.00,461.83" fill="none" stroke="#d62728" stroke-width="2"/>
<circle cx="80.00" cy="431.26" r="2.5" fill="#d62728"/>
<circle cx="80.00" cy="95.19" r="2.5" fill="#d62728"/>
<circle cx="94.24" cy="450.52" r="2.5" fill="#d62728"/>
<circle cx="94.24" cy="107.72" r="2.5" fill="#d62728"/>
<circle cx="108.47" cy="446.96" r="2.5" fill="#d62728"/>
<circle cx="108.47" cy="193.80" r="2.5" fill="#d62728"/>
<circle cx="122.71" cy="431.14" r="2.5" fill="#d62728"/>
<circle cx="122.71" cy="209.47" r="2.5" fill="#d62728"/>
<circle cx="136.95" cy="400.98" r="2.5" fill="#d62728"/>
<circle cx="136.95" cy="284.05" r="2.5" fill="#d62728"/>
<circle cx="151.19" cy="408.89" r="2.5" fill="#d62728"/>
<circle cx="151.19" cy="315.21" r="2.5" fill="#d62728"/>
<circle cx="165.42" cy="407.67" r="2.5" fill="#d62728"/>
<circle cx="165.42" cy="367.56" r="2.5" fill="#d62728"/>
<circle cx="179.66" cy="450.35" r="2.5" fill="#d62728"/>
<circle cx="179.66" cy="399.07" r="2.5" fill="#d62728"/>
<circle cx="193.90" cy="402.08" r="2.5" fill="#d62728"/>
<circle cx="193.90" cy="389.68" r="2.5" fill="#d62728"/>
<circle cx="208.14" cy="420.16" r="2.5" fill="#d62728"/>
<circle cx="208.14" cy="411.57" r="2.5" fill="#d62728"/>
<circle cx="222.37" cy="397.93" r="2.5" fill="#d62728"/>
<circle cx="222.37" cy="394.67" r="2.5" fill="#d62728"/>
<circle cx="236.61" cy="422.67" r="2.5" fill="#d62728"/>
<circle cx="236.61" cy="402.74" r="2.5" fill="#d62728"/>
<circle cx="250.85" cy="407.49" r="2.5" fill="#d62728"/>
<circle cx="250.85" cy="401.96" r="2.5" fill="#d62728"/>
<circle cx="265.08" cy="419.98" r="2.5" fill="#d62728"/>
<circle cx="265.08" cy="415.60" r="2.5" fill="#d62728"/>
<circle cx="279.32" cy="401.16" r="2.5" fill="#d62728"/>
<circle cx="279.32" cy="397.46" r="2.5" fill="#d62728"/>
<circle cx="293.56" cy="411.61" r="2.5" fill="#d62728"/>
<circle cx="293.56" cy="371.75" r="2.5" fill="#d62728"/>
<circle cx="307.80" cy="425.44" r="2.5" fill="#d62728"/>
<circle cx="307.80" cy="417.89" r="2.5" fill="#d62728"/>
<circle cx="322.03" cy="396.41" r="2.5" fill="#d62728"/>
<circle cx="322.03" cy="365.31" r="2.5" fill="#d62728"/>
<circle cx="336.27" cy="401.14" r="2.5" fill="#d62728"/>
<circle cx="336.27" cy="398.91" r="2.5" fill="#d62728"/>
<circle cx="350.51" cy="414.76" r="2.5" fill="#d62728"/>
<circle cx="350.51" cy="375.76" r="2.5" fill="#d62728"/>
<circle cx="364.75" cy="431.25" r="2.5" fill="#d62728"/>
<circle cx="364.75" cy="390.03" r="2.5" fill="#d62728"/>
<circle cx="378.98" cy="412.11" r="2.5" fill="#d62728"/>
<circle cx="378.98" cy="404.33" r="2.5" fill="#d62728"/>
<circle cx="393.22" cy="402.05" r="2.5" fill="#d62728"/>
<circle cx="393.22" cy="333.50" r="2.5" fill="#d62728"/>
<circle cx="407.46" cy="427.41" r="2.5" fill="#d62728"/>
<circle cx="407.46" cy="365.84" r="2.5" fill="#d62728"/>
<circle cx="421.69" cy="390.38" r="2.5" fill="#d62728"/>
<circle cx="421.69" cy="377.86" r="2.5" fill="#d62728"/>
<circle cx="435.93" cy="436.08" r="2.5" fill="#d62728"/>
<circle cx="435.93" cy="417.80" r="2.5" fill="#d62728"/>
<circle cx="450.17" cy="423.41" r="2.5" fill="#d62728"/>
<circle cx="450.17" cy="394.31" r="2.5" fill="#d62728"/>
<circle cx="464.41" cy="446.97" r="2.5" fill="#d62728"/>
<circle cx="464.41" cy="379.94" r="2.5" fill="#d62728"/>
<circle cx="478.64" cy="397.02" r="2.5" fill="#d62728"/>
<circle cx="478.64" cy="380.72" r="2.5" fill="#d62728"/>
<circle cx="492.88" cy="365.90" r="2.5" fill="#d62728"/>
<circle cx="492.88" cy="338.59" r="2.5" fill="#d62728"/>
<circle cx="507.12" cy="401.51" r="2.5" fill="#d62728"/>
<circle cx="507.12" cy="385.22" r="2.5" fill="#d62728"/>
<circle cx="521.36" cy="416.11" r="2.5" fill="#d62728"/>
<circle cx="521.36" cy="392.36" r="2.5" fill="#d62728"/>
<circle cx="535.59" cy="423.40" r="2.5" fill="#d62728"/>
<circle cx="535.59" cy="420.44" r="2.5" fill="#d62728"/>
<circle cx="549.83" cy="442.65" r="2.5" fill="#d62728"/>
<circle cx="549.83" cy="434.26" r="2.5" fill="#d62728"/>
<circle cx="564.07" cy="425.92" r="2.5" fill="#d62728"/>
<circle cx="564.07" cy="409.21" r="2.5" fill="#d62728"/>
<circle cx="578.31" cy="435.79" r="2.5" fill="#d62728"/>
<circle cx="578.31" cy="432.92" r="2.5" fill="#d62728"/>
<circle cx="592.54" cy="443.01" r="2.5" fill="#d62728"/>
<circle cx="592.54" cy="413.84" r="2.5" fill="#d62728"/>
<circle cx="606.78" cy="426.22" r="2.5" fill="#d62728"/>
<circle cx="606.78" cy="424.80" r="2.5" fill="#d62728"/>
<circle cx="621.02" cy="460.21" r="2.5" fill="#d62728"/>
<circle cx="621.02" cy="444.80" r="2.5" fill="#d62728"/>
<circle cx="635.25" cy="454.61" r="2.5" fill="#d62728"/>
<circle cx="635.25" cy="447.86" r="2.5" fill="#d62728"/>
<circle cx="649.49" cy="451.28" r="2.5" fill="#d62728"/>
<circle cx="649.49" cy="445.88" r="2.5" fill="#d62728"/>
<circle cx="663.73" cy="450.82" r="2.5" fill="#d62728"/>
<circle cx="663.73" cy="420.11" r="2.5" fill="#d62728"/>
<circle cx="677.97" cy="456.56" r="2.5" fill="#d62728"/>
<circle cx="677.97" cy="439.72" r="2.5" fill="#d62728"/>
<circle cx="692.20" cy="458.91" r="2.5" fill="#d62728"/>
<circle cx="692.20" cy="452.70" r="2.5" fill="#d62728"/>
<circle cx="706.44" cy="437.41" r="2.5" fill="#d62728"/>
<circle cx="706.44" cy="388.06" r="2.5" fill="#d62728"/>
<circle cx="720.68" cy="459.70" r="2.5" fill="#d62728"/>
<circle cx="720.68" cy="445.84" r="2.5" fill="#d62728"/>
<circle cx="734.92" cy="456.43" r="2.5" fill="#d62728"/>
<circle cx="734.92" cy="436.92" r="2.5" fill="#d62728"/>
<circle cx="749.15" cy="462.41" r="2.5" fill="#d62728"/>
<circle cx="749.15" cy="455.20" r="2.5" fill="#d62728"/>
<circle cx="763.39" cy="462.67" r="2.5" fill="#d62728"/>
<circle cx="763.39" cy="457.93" r="2.5" fill="#d62728"/>
<circle cx="777.63" cy="455.87" r="2.5" fill="#d62728"/>
<circle cx="777.63" cy="454.24" r="2.5" fill="#d62728"/>
<circle cx="791.86" cy="458.25" r="2.5" fill="#d62728"/>
<circle cx="791.86" cy="453.83" r="2.5" fill="#d62728"/>
<circle cx="806.10" cy="457.43" r="2.5" fill="#d62728"/>
<circle cx="806.10" cy="455.70" r="2.5" fill="#d62728"/>
<circle cx="820.34" cy="462.66" r="2.5" fill="#d62728"/>
<circle cx="820.34" cy="448.35" r="2.5" fill="#d62728"/>
<circle cx="834.58" cy="464.71" r="2.5" fill="#d62728"/>
<circle cx="834.58" cy="449.82" r="2.5" fill="#d62728"/>
<circle cx="848.81" cy="459.11" r="2.5" fill="#d62728"/>
<circle cx="848.81" cy="453.52" r="2.5" fill="#d62728"/>
<circle cx="863.05" cy="456.29" r="2.5" fill="#d62728"/>
<circle cx="863.05" cy="450.43" r="2.5" fill="#d62728"/>
<circle cx="877.29" cy="460.33" r="2.5" fill="#d62728"/>
<circle cx="877.29" cy="458.14" r="2.5" fill="#d62728"/>
<circle cx="891.53" cy="463.94" r="2.5" fill="#d62728"/>
<circle cx="891.53" cy="461.03" r="2.5" fill="#d62728"/>
<circle cx="905.76" cy="463.75" r="2.5" fill="#d62728"/>
<circle cx="905.76" cy="453.87" r="2.5" fill="#d62728"/>
<circle cx="920.00" cy="465.07" r="2.5" fill="#d62728"/>
<circle cx="920.00" cy="461.83" r="2.5" fill="#d62728"/>
<rect x="690" y="120" width="12" height="12" fill="#d62728"/>
<text x="708" y="130" font-family="sans-serif" font-size="12">Semi-Coordinated - QPLF</text>
<text x="80" y="500" font-family="sans-serif" font-size="12">x: 0 to 59; y: 0.679 to 141.916</text>
</svg>
