<svg xmlns="http://www.w3.org/2000/svg" width="960" height="560" viewBox="0 0 960 560">
<rect width="100%" height="100%" fill="white"/>
<text x="80" y="35" font-family="sans-serif" font-size="24">Eta vs delay for cyclic queue backpressure</text>
<line x1="80" y1="480" x2="920" y2="480" stroke="black"/>
<line x1="80" y1="70" x2="80" y2="480" stroke="black"/>
<text x="460.0" y="535" font-family="sans-serif" font-size="14">eta</text>
<text x="15" y="275.0" font-family="sans-serif" font-size="14" transform="rotate(-90 15,275.0)">mean_delay_seconds</text>
<polyline points="80.00,480.00 156.36,468.84 232.73,452.93 309.09,446.53 385.45,415.13 461.82,407.10 538.18,395.78 614.55,395.11 690.91,401.20 767.27,380.16 843.64,373.46 920.00,395.28" fill="none" stroke="#1f77b4" stroke-width="2"/>
<circle cx="80.00" cy="480.00" r="2.5" fill="#1f77b4"/>
<circle cx="156.36" cy="468.84" r="2.5" fill="#1f77b4"/>
<circle cx="232.73" cy="452.93" r="2.5" fill="#1f77b4"/>
<circle cx="309.09" cy="446.53" r="2.5" fill="#1f77b4"/>
<circle cx="385.45" cy="415.13" r="2.5" fill="#1f77b4"/>
<circle cx="461.82" cy="407.10" r="2.5" fill="#1f77b4"/>
<circle cx="538.18" cy="395.78" r="2.5" fill="#1f77b4"/>
<circle cx="614.55" cy="395.11" r="2.5" fill="#1f77b4"/>
<circle cx="690.91" cy="401.20" r="2.5" fill="#1f77b4"/>
<circle cx="767.27" cy="380.16" r="2.5" fill="#1f77b4"/>
<circle cx="843.64" cy="373.46" r="2.5" fill="#1f77b4"/>
<circle cx="920.00" cy="395.28" r="2.5" fill="#1f77b4"/>
<rect x="690" y="60" width="12" height="12" fill="#1f77b4"/>
<text x="708" y="70" font-family="sans-serif" font-size="12">scenario1_low_demand</text>
<polyline points="80.00,122.49 156.36,100.90 232.73,85.15 309.09,75.39 385.45,74.62 461.82,74.12 538.18,70.13 614.55,70.06 690.91,70.00 767.27,70.00 843.64,70.00 920.00,70.00" fill="none" stroke="#ff7f0e" stroke-width="2"/>
<circle cx="80.00" cy="122.49" r="2.5" fill="#ff7f0e"/>
<circle cx="156.36" cy="100.90" r="2.5" fill="#ff7f0e"/>
<circle cx="232.73" cy="85.15" r="2.5" fill="#ff7f0e"/>
<circle cx="309.09" cy="75.39" r="2.5" fill="#ff7f0e"/>
<circle cx="385.45" cy="74.62" r="2.5" fill="#ff7f0e"/>
<circle cx="461.82" cy="74.12" r="2.5" fill="#ff7f0e"/>
<circle cx="538.18" cy="70.13" r="2.5" fill="#ff7f0e"/>
<circle cx="614.55" cy="70.06" r="2.5" fill="#ff7f0e"/>
<circle cx="690.91" cy="70.00" r="2.5" fill="#ff7f0e"/>
<circle cx="767.27" cy="70.00" r="2.5" fill="#ff7f0e"/>
<circle cx="843.64" cy="70.00" r="2.5" fill="#ff7f0e"/>
<circle cx="920.00" cy="70.00" r="2.5" fill="#ff7f0e"/>
<rect x="690" y="80" width="12" height="12" fill="#ff7f0e"/>
<text x="708" y="90" font-family="sans-serif" font-size="12">scenario2_high_demand</text>
<text x="80" y="500" font-family="sans-serif" font-size="12">x: 0.1 to 1.2; y: 35.417 to 286.341</text>
</svg>
