<svg xmlns="http://www.w3.org/2000/svg" width="980" height="560" viewBox="0 0 980 560">
<rect width="100%" height="100%" fill="white"/>
<text x="90" y="35" font-family="sans-serif" font-size="24">Comparative mean delay by algorithm</text>
<line x1="90" y1="410" x2="950" y2="410" stroke="black"/>
<line x1="90" y1="70" x2="90" y2="410" stroke="black"/>
<rect x="105.0" y="389.5" width="59.5" height="20.5" fill="#1f77b4"/>
<text x="105.0" y="384.5" font-family="sans-serif" font-size="11">15.33</text>
<text x="134.8" y="428" font-family="sans-serif" font-size="11" text-anchor="end" transform="rotate(-35 134.8,428)">Independent Learner - Full RL</text>
<rect x="190.0" y="376.4" width="59.5" height="33.6" fill="#1f77b4"/>
<text x="190.0" y="371.4" font-family="sans-serif" font-size="11">25.10</text>
<text x="219.8" y="428" font-family="sans-serif" font-size="11" text-anchor="end" transform="rotate(-35 219.8,428)">Independent Learner - QPLF</text>
<rect x="275.0" y="400.2" width="59.5" height="9.8" fill="#1f77b4"/>
<text x="275.0" y="395.2" font-family="sans-serif" font-size="11">7.33</text>
<text x="304.8" y="428" font-family="sans-serif" font-size="11" text-anchor="end" transform="rotate(-35 304.8,428)">Semi-Coordinated - Full RL</text>
<rect x="360.0" y="397.5" width="59.5" height="12.5" fill="#1f77b4"/>
<text x="360.0" y="392.5" font-family="sans-serif" font-size="11">9.31</text>
<text x="389.8" y="428" font-family="sans-serif" font-size="11" text-anchor="end" transform="rotate(-35 389.8,428)">Semi-Coordinated - QPLF</text>
<rect x="445.0" y="396.1" width="59.5" height="13.9" fill="#1f77b4"/>
<text x="445.0" y="391.1" font-family="sans-serif" font-size="11">10.41</text>
<text x="474.8" y="428" font-family="sans-serif" font-size="11" text-anchor="end" transform="rotate(-35 474.8,428)">Independent Learner - Full RL</text>
<rect x="530.0" y="400.4" width="59.5" height="9.6" fill="#1f77b4"/>
<text x="530.0" y="395.4" font-family="sans-serif" font-size="11">7.21</text>
<text x="559.8" y="428" font-family="sans-serif" font-size="11" text-anchor="end" transform="rotate(-35 559.8,428)">Independent Learner - QPLF</text>
<rect x="615.0" y="404.3" width="59.5" height="5.7" fill="#1f77b4"/>
<text x="615.0" y="399.3" font-family="sans-serif" font-size="11">4.23</text>
<text x="644.8" y="428" font-family="sans-serif" font-size="11" text-anchor="end" transform="rotate(-35 644.8,428)">Semi-Coordinated - Full RL</text>
<rect x="700.0" y="400.3" width="59.5" height="9.7" fill="#1f77b4"/>
<text x="700.0" y="395.3" font-family="sans-serif" font-size="11">7.27</text>
<text x="729.8" y="428" font-family="sans-serif" font-size="11" text-anchor="end" transform="rotate(-35 729.8,428)">Semi-Coordinated - QPLF</text>
<rect x="785.0" y="362.6" width="59.5" height="47.4" fill="#1f77b4"/>
<text x="785.0" y="357.6" font-family="sans-serif" font-size="11">35.42</text>
<text x="814.8" y="428" font-family="sans-serif" font-size="11" text-anchor="end" transform="rotate(-35 814.8,428)">Cyclic Queue Backpressure</text>
<rect x="870.0" y="70.0" width="59.5" height="340.0" fill="#1f77b4"/>
<text x="870.0" y="65.0" font-family="sans-serif" font-size="11">254.21</text>
<text x="899.8" y="428" font-family="sans-serif" font-size="11" text-anchor="end" transform="rotate(-35 899.8,428)">Cyclic Queue Backpressure</text>
<text x="15" y="240.0" font-family="sans-serif" font-size="14" transform="rotate(-90 15,240.0)">mean_mean_delay_seconds</text>
</svg>
